<?xml version="1.0" encoding="UTF-8"?>
<svg id="Layer_2" data-name="Layer 2" xmlns="http://www.w3.org/2000/svg" viewBox="0 0 49.29 160.73">
  <defs>
    <style>
      .cls-1 {
        fill: #7e7e84;
        stroke-width: 0px;
      }
    </style>
  </defs>
  <g id="Layer_2-2" data-name="Layer 2">
    <g id="Layer_1-2" data-name="Layer 1-2">
      <g>
        <path class="cls-1" d="M49.16,160.67c-2.37,0-4.02-.12-5.64.02-3.49.3-4.82-1.27-4.58-4.68.4-5.53-.12-10.82-4.28-15.14-.85-.88-1.77-2.5-1.52-3.49,2.81-11.05-6.51-19.42-6.54-29.96-2.47,7.46-5.81,14.49-5,22.7.33,3.37-.9,6.98-1.86,10.36-1.35,4.79-3.52,9.37-4.52,14.21-.71,3.4-1.44,5.44-5.41,5.06-3.07-.29-6.2-.06-9.81-1.11,1.39-1.12,2.63-2.92,4.19-3.24,3.71-.77,3.75-3.05,4.06-6.12.58-5.82,2.17-11.53,2.8-17.35.45-4.14.13-8.38-.05-12.56-.12-2.94-1.51-6.15-.69-8.73,1.95-6.14.14-11.28-2.17-16.74-1.29-3.06-2.11-6.69-1.85-9.97.58-7.42-1.47-14.22-3.13-21.26-.87-3.68-.18-8.07.94-11.8,1.55-5.18,5.83-2.4,9.14-2.06,1.98.2,3.97.45,5.95.67.25-2.23.69-4.46.68-6.69-.01-2.1-.95-4.27-.65-6.28.3-2.01,1.21-4.34,2.66-5.61.98-.86,4.4-.76,4.9.04,1.19,1.92,1.95,4.59,1.68,6.81-.48,3.97-1.86,7.84-2.35,11.97,3.57-5.34,9.88-7.63,12.53-14.21,2.8-6.94.02-12.67-.75-18.91-.06-.48-1.07-.97-1.72-1.24-4.77-1.95-5.35-3.62-2.81-8.79,1.25,1,2.47,1.96,4.67,3.71-1.07-2.71-2.03-4.24-2.19-5.85-.14-1.39.25-3.22,1.13-4.17.51-.55,3.27-.17,3.65.53,1.87,3.47,4.71,7.29,4.48,10.8-.26,3.87-.36,7.11,1.68,10.42,3.84,6.24,3.04,12.26-.82,18.27-7.49,11.66-9.29,25.29-12.55,38.34-.77,3.09.57,7.25,2.14,10.3,4.8,9.3,6.88,18.89,6.62,29.4-.18,7.12,1.44,14.29,2.27,21.43.15,1.3.53,2.6.5,3.89-.12,4.81-.32,9.57,3.31,13.49.56.61.51,1.79.95,3.5l-.04.04ZM26.53,32.23c-5.98.54-5.63,3.87-5.4,6.99.17,2.27.6,4.53.92,6.79.82,5.71-1.94,7.27-8.08,5.6-.78-.21-1.53-.58-2.28-.88-3.96-1.58-6.35.1-6.43,4-.08,4.13.61,8.31,1.27,12.41.64,4,3.08,8.27,2.24,11.83-1.71,7.26.95,13.12,3.3,19.39.89,2.37.94,5.12,1.02,7.71.16,4.69.06,9.39.08,14.09.02,4.19.46,8.43,0,12.56-.7,6.32-1.92,12.59-3.12,18.85-.41,2.12-1.43,4.12-2.15,6.11,2.99.52,4.93.02,5.46-4.61.53-4.69,3.09-9.15,4.66-13.74.78-2.28,2.39-4.93,1.83-6.91-2.34-8.27,1.95-15.39,3.28-22.99.4-2.26,1.88-4.32,3.4-7.64,1.2,2.71,1.91,4.14,2.47,5.62,2.45,6.46,1.71,14.11,7.32,19.43.4.38-.27,1.77-.24,2.69.11,3.43-1.05,8.13.73,10.02,4.39,4.64,4.14,9.72,4.17,15.15.02,4.14.43,4.33,3.9,3.51-.66-4.19-1.33-8.26-1.92-12.34-.28-1.94-.41-3.91-.62-5.86-.77-7.16-2.23-14.32-2.17-21.47.08-9.74-1.35-18.82-6.01-27.51-1.79-3.34-3.61-7.76-2.88-11.14,2.7-12.53,4.44-25.5,11.04-36.83,4.54-7.79,6.75-15.24.89-23.41-.98-1.37-.55-3.92-.39-5.89.36-4.5.4-8.75-5.18-11.93,1.09,3.58,1.89,6.21,2.69,8.84-2.09.69-3.57,1.18-5.06,1.67,4.57.27,5.29,3.17,5.69,6.5.39,3.24,1.02,6.45,1.4,9.69.18,1.56.68,3.64-.08,4.65-3.62,4.8-3.9,12.18-10.98,14.42-.71.23-.72,2.21-1.5,2.85-1.02.84-2.51,1.6-3.74,1.52-.73-.05-1.84-1.73-1.92-2.75-.13-1.74.42-3.54.68-5.31.53-3.66,1.06-7.33,1.69-11.69h.02Z"/>
        <path class="cls-1" d="M12.39,65.3c-2.12,11.65-2.29,21.85,3.78,31.67,7.01-7.77,2-23.15-3.78-31.67ZM15.09,91.42c-.46-5.42-.91-10.84-1.37-16.26,2.07,5.25,6.21,10.25,1.37,16.26Z"/>
      </g>
    </g>
  </g>
</svg>