<?xml version="1.0" encoding="UTF-8"?>
<svg id="Layer_2" data-name="Layer 2" xmlns="http://www.w3.org/2000/svg" width="33.65" height="33.65" viewBox="0 0 33.65 33.65">
  <defs>
    <style>
      .cls-1, .cls-2 {
        stroke-width: 0px;
      }

      .cls-2 {
        fill: #fff;
      }
    </style>
  </defs>
  <g id="Layer_1-2" data-name="Layer 1">
    <path class="cls-1" d="M33.63,16.96c0,5.12-.03,10.23.02,15.35.01,1.07-.33,1.35-1.37,1.35-10.31-.03-20.62-.03-30.93,0-1.07,0-1.35-.33-1.35-1.37C.03,21.97.04,11.66,0,1.35,0,.28.34,0,1.37,0,11.68.03,21.99.04,32.3,0c1.07,0,1.36.33,1.35,1.37-.05,5.19-.02,10.39-.02,15.59ZM13.91,3.51c.14-.08.28-.15.42-.23.95,1.18,2.08,2.25,2.8,3.55,1.25,2.28,3.04,2.91,5.5,2.61,1.48-.18,2.35.71,2.42,2.02.08,1.41-.7,2.26-2.25,2.38-.7.05-1.4,0-2.09,0v5.96c.75,0,1.47-.05,2.17.01,1.31.11,2,.74,2.14,1.85.19,1.58-.7,2.68-2.35,2.54-2.34-.21-4.21.13-5.44,2.48-.71,1.37-1.92,2.48-2.91,3.7-.23-.26-.09-.18.06-.18,3.08,0,6.16.12,9.23-.04,3.99-.2,7.25-3.76,7.43-7.76.1-2.14-.58-3.98-1.84-5.6,2.16-2.89,2.55-5.91.91-8.98-1.65-3.1-4.38-4.51-7.9-4.44-2.36.05-4.72,0-7.07.01-.41,0-.82.06-1.23.09ZM2.68,27.17c0,.68.03,1.36,0,2.04-.03.69.2.99.94,1.04,6.15.43,11.41-2.74,13.85-8.39C21.04,13.57,14.83,3.75,5.83,3.43q-3.15-.11-3.15,2.99,0,2.91,2.9,2.99c3.81.11,6.93,3.46,6.92,7.44,0,3.97-3.15,7.3-6.98,7.39q-2.84.07-2.84,2.93Z"/>
    <path class="cls-2" d="M13.91,3.51c.41-.03.82-.09,1.23-.09,2.36,0,4.72.03,7.07-.01,3.52-.07,6.25,1.34,7.9,4.44,1.63,3.07,1.25,6.09-.91,8.98,1.26,1.62,1.94,3.46,1.84,5.6-.19,3.99-3.44,7.55-7.43,7.76-3.07.16-6.15.04-9.23.04-.14,0-.29-.08-.06.18.99-1.22,2.2-2.33,2.91-3.7,1.23-2.35,3.1-2.69,5.44-2.48,1.66.14,2.55-.96,2.35-2.54-.14-1.11-.82-1.74-2.14-1.85-.7-.06-1.42-.01-2.17-.01v-5.96c.69,0,1.39.04,2.09,0,1.55-.12,2.33-.97,2.25-2.38-.08-1.31-.94-2.2-2.42-2.02-2.46.3-4.24-.33-5.5-2.61-.72-1.3-1.85-2.37-2.8-3.55-.14.08-.28.15-.42.23Z"/>
    <path class="cls-2" d="M2.68,27.17q0-2.86,2.84-2.93c3.83-.09,6.97-3.42,6.98-7.39,0-3.98-3.11-7.33-6.92-7.44q-2.9-.09-2.9-2.99,0-3.11,3.15-2.99c9.01.32,15.21,10.15,11.64,18.43-2.44,5.66-7.71,8.83-13.85,8.39-.74-.05-.97-.35-.94-1.04.03-.68,0-1.36,0-2.04Z"/>
  </g>
</svg>