<?xml version="1.0" encoding="utf-8"?>
<!-- Generator: Adobe Illustrator 28.2.0, SVG Export Plug-In . SVG Version: 6.00 Build 0)  -->
<svg version="1.1" id="Layer_2_00000051359156821954041990000010183220921049547909_"
	 xmlns="http://www.w3.org/2000/svg" xmlns:xlink="http://www.w3.org/1999/xlink" x="0px" y="0px" viewBox="0 0 178.8 230.1"
	 style="enable-background:new 0 0 178.8 230.1;" xml:space="preserve">
<style type="text/css">
	.st0{fill-rule:evenodd;clip-rule:evenodd;fill:#7E7E84;}
</style>
<g id="Layer_2-2">
	<g id="svg2948">
		<g id="layer1">
			<path id="path2838" class="st0" d="M37.9,117.9c-0.1,22.9,16.7,36.5,43.4,30.3V87.6C54.2,79.3,38,96.1,37.9,117.9 M82.2,0H119
				v174.4c-35.3,5.8-69.2,9.4-93.4-4.1c-31.2-17.4-33.7-72.8-9-97.4c12.5-12.5,37.7-21.3,64.7-15.6V2.5C81.2,1.3,81.2,0.1,82.2,0"/>
			<path id="path2840" class="st0" d="M178.8,38.5h-36.8V0h36.9L178.8,38.5L178.8,38.5z"/>
			<path id="path2860" class="st0" d="M178.8,58c0,27.1,0,46.6,0,79.6c-1.6,32.4-1.2,58.2-13.1,73.7c-2.3,3.1-7.3,7.5-11.5,10.7
				c-3.5,2.6-10.1,7.9-13.9,8.2c-3.8,0.2-13.6-5.3-18-7.4c-5.8-2.7-11.2-6.4-17.2-8.2c14-8.7,27.3-15.2,32.7-32.8
				c4.7-15.3,4.1-37.4,4.1-59S142,76.8,142,58L178.8,58L178.8,58L178.8,58z"/>
		</g>
	</g>
</g>
</svg>
