<?xml version="1.0" encoding="utf-8"?>
<!-- Generator: Adobe Illustrator 28.2.0, SVG Export Plug-In . SVG Version: 6.00 Build 0)  -->
<svg version="1.1" id="Layer_2_00000093863853160153425960000004053223194063915145_"
	 xmlns="http://www.w3.org/2000/svg" xmlns:xlink="http://www.w3.org/1999/xlink" x="0px" y="0px" viewBox="0 0 194.6 246.3"
	 style="enable-background:new 0 0 194.6 246.3;" xml:space="preserve">
<style type="text/css">
	.st0{fill:#7E7E84;}
</style>
<g id="Layer_2-2_00000081635437493152166900000009592853609904855730_">
	<g id="Layer_2-2">
		<g id="Layer_1-2">
			<path class="st0" d="M0.3,206L0.3,206L0.3,206C0.3,206,0.3,206,0.3,206z"/>
			<path class="st0" d="M193.6,154.5L193.6,154.5c-0.2-4.5-0.3-9.1-0.6-13.6c-0.6-10.2-1.2-20.3-1.8-30.5c-1-15.1-2-30.1-3-45.2
				c-0.3-4-0.7-8-1.1-12v0c-0.1-0.7-0.1-1.4-0.2-2.2c-0.3-1.1-0.6-2.1-0.9-3.2l0,0c-0.1-0.4-0.2-0.7-0.3-1.1
				c-1.1-2.3-2.1-4.6-3.1-6.9c-0.3-0.4-0.6-0.8-0.9-1.2l0,0c-0.4-0.6-0.9-1.3-1.3-1.9l0,0c-0.2-0.3-0.5-0.5-0.7-0.8
				c-0.3-0.4-0.7-0.7-1-1.1c-0.7-0.7-1.4-1.4-2.2-2.1h0c-0.4-0.3-0.7-0.7-1.1-1h0c-0.3-0.2-0.6-0.5-0.9-0.7
				c-0.4-0.3-0.8-0.6-1.2-0.9c0,0,0,0,0,0c-1-0.6-2-1.2-3-1.8h0v0c-0.4-0.2-0.8-0.5-1.3-0.8c-0.3-0.1-0.6-0.2-0.9-0.3
				c-1.5-0.6-3-1.2-4.5-1.8c-0.4-0.1-0.7-0.1-1.1-0.2c-1.2-0.3-2.5-0.6-3.7-0.9c-1.5-0.2-3-0.3-4.5-0.5c-0.4,0-0.8,0.1-1.2,0.1
				c0.4,0,0.8-0.1,1.2-0.1c-0.7-0.3-1.4-0.7-2.2-0.8c-4.1-0.9-8.2-1.6-12.3-2.5c-11.7-2.4-23.4-4.8-35.2-7.1
				c-13.9-2.8-27.8-5.6-41.8-8.3c-5.2-1-10.4-1.8-15.5-2.7c-0.7-0.1-1.3-0.3-2-0.4h0c-0.1-0.1-0.3-0.2-0.4-0.3h0
				c-0.8-0.1-1.6-0.3-2.4-0.4c-0.8-0.2-1.7-0.5-2.5-0.7c-0.5-0.1-1-0.1-1.6-0.2c-0.6,0-1.1-0.1-1.7-0.1L34.5,0
				c-1.2,0.1-2.3,0.1-3.5,0.2c-0.4,0-0.8,0-1.2,0.1c-0.6,0-1.1,0.1-1.7,0.1c-0.5,0.1-1,0.2-1.6,0.2c-0.5,0.2-1.1,0.3-1.6,0.5l0,0
				l0,0c-2.7,1.1-5.4,2.2-8.1,3.3h0c-0.5,0.3-1.1,0.6-1.6,0.9c-0.5,0.4-1.1,0.8-1.6,1.1h0c-0.5,0.4-1,0.7-1.4,1.1
				c-2.5,2.9-5,5.8-7.5,8.7c-0.3,0.5-0.6,1-0.8,1.4c-0.5,1.3-1,2.5-1.6,3.8c-0.3,0.7-0.6,1.5-0.9,2.2c-0.1,0.4-0.1,0.7-0.2,1l0,0
				c-0.3,1.3-0.6,2.5-0.9,3.8h0c-0.1,1.3-0.2,2.5-0.2,3.7v2.1c0,2,0.1,3.9,0.2,5.9c-0.1,1-0.2,2-0.2,2.9c0,53.2,0,106.3,0,159.4
				c0,1.1,0.2,2.3,0.2,3.4v0c-0.1,2.2-0.3,4.5-0.3,6.7c0,17.3,12,31.1,29.1,33.3c8.2,1.1,15.8-1.2,23-4.9c0.1-0.1,0.3-0.2,0.4-0.4
				l-0.4,0.4c0.3,0,0.7,0,1-0.1c11.7-4.4,23.4-8.9,35.1-13.3c22.4-8.5,44.8-16.9,67.2-25.4c4.3-1.6,8.6-3.4,12.9-5.2
				c8.3-1.9,14.9-6.2,19.9-13.1C194.8,175.2,195.6,165.1,193.6,154.5L193.6,154.5z M33.2,226.3c-7.3,0-13.1-5.8-13.1-13.2
				c0-7.4,5.6-13,13.1-13h0c7.3,0,13.2,5.9,13.2,13.1S40.4,226.3,33.2,226.3z M33.1,46.3c-7.1,0-13-6.1-13-13.3
				c0-7.4,5.9-13.1,13.4-13c7.2,0.1,13,6.1,12.9,13.4C46.3,40.4,40.2,46.3,33.1,46.3z M141.2,57.2c0.1-7.1,5.9-12.9,13.1-13
				c7.5-0.1,13.4,6,13.3,13.6c-0.1,7.1-6,12.7-13.3,12.7l0,0C146.9,70.3,141.1,64.5,141.2,57.2L141.2,57.2z M161.2,177.7
				c-7.4-0.1-12.9-5.8-13-13.2c-0.1-7.5,6.7-13.5,13.2-12.9c7.5,0,13,5.6,12.9,13.1C174.3,172.2,168.6,177.8,161.2,177.7z"/>
			<path class="st0" d="M185.8,46.7c-1.1-2.3-2.1-4.6-3.1-6.9C183.7,42.1,184.7,44.4,185.8,46.7z"/>
			<path class="st0" d="M168,27.2c-1.5-0.6-3-1.2-4.5-1.8C165,26,166.5,26.6,168,27.2z"/>
			<path class="st0" d="M162.4,25.2c-1.2-0.3-2.5-0.6-3.7-0.9C160,24.6,161.2,24.9,162.4,25.2z"/>
			<path class="st0" d="M34.5,0c-1.2,0.1-2.3,0.1-3.5,0.2C32.1,0.1,33.3,0.1,34.5,0z"/>
			<path class="st0" d="M26.5,0.6c-0.5,0.2-1.1,0.3-1.6,0.5C25.4,0.9,26,0.8,26.5,0.6z"/>
			<path class="st0" d="M38.3,0.4c-0.6-0.1-1.1-0.1-1.7-0.1C37.2,0.3,37.7,0.4,38.3,0.4z"/>
			<path class="st0" d="M29.7,0.3c-0.5,0-1.1,0.1-1.7,0.1C28.6,0.3,29.2,0.3,29.7,0.3z"/>
			<path class="st0" d="M124.4,42c0.3-0.4,0.6-0.8,0.9-1.2C125,41.2,124.7,41.6,124.4,42z"/>
		</g>
	</g>
</g>
</svg>
