<?xml version="1.0" encoding="utf-8"?>
<!-- Generator: Adobe Illustrator 28.2.0, SVG Export Plug-In . SVG Version: 6.00 Build 0)  -->
<svg version="1.1" id="Layer_2_00000042003907228986866320000004884342116812291726_"
	 xmlns="http://www.w3.org/2000/svg" xmlns:xlink="http://www.w3.org/1999/xlink" x="0px" y="0px" viewBox="0 0 235.2 237.8"
	 style="enable-background:new 0 0 235.2 237.8;" xml:space="preserve">
<style type="text/css">
	.st0{fill:#7E7E84;}
</style>
<g id="Layer_2-2">
	<g id="svg2">
		<path id="path1948" class="st0" d="M116.2,0c-9.7,0-18.9,0.9-27.1,2.3c-24,4.2-28.4,13.1-28.4,29.5v21.6h56.7v7.2h-78
			C22.9,60.6,8.5,70.5,4,89.4C-1.2,111-1.5,124.5,4,147c4,16.8,13.7,28.8,30.1,28.8h19.5v-25.9c0-18.7,16.2-35.2,35.4-35.2h56.6
			c15.8,0,28.4-13,28.4-28.8v-54c0-15.4-13-26.9-28.4-29.5C136,0.7,125.9,0,116.2,0z M85.5,17.4c5.9,0,10.6,4.9,10.6,10.8
			S91.4,39,85.5,39s-10.6-4.8-10.6-10.8S79.6,17.4,85.5,17.4z"/>
		<path id="path1950" class="st0" d="M181.2,60.6v25.2c0,19.5-16.6,36-35.4,36H89.1c-15.5,0-28.4,13.3-28.4,28.8v54
			c0,15.4,13.4,24.4,28.4,28.8c18,5.3,35.2,6.2,56.7,0c14.3-4.1,28.4-12.5,28.4-28.8V183h-56.7v-7.2h85c16.5,0,22.6-11.5,28.4-28.8
			c5.9-17.8,5.7-34.9,0-57.7c-4.1-16.4-11.9-28.8-28.4-28.8L181.2,60.6L181.2,60.6z M149.3,197.4c5.9,0,10.6,4.8,10.6,10.8
			s-4.8,10.8-10.6,10.8s-10.6-4.9-10.6-10.8S143.4,197.4,149.3,197.4z"/>
	</g>
</g>
</svg>
