<?xml version="1.0" encoding="utf-8"?>
<!-- Generator: Adobe Illustrator 28.2.0, SVG Export Plug-In . SVG Version: 6.00 Build 0)  -->
<svg version="1.1" id="Layer_2_00000160884528826681931200000000971410589784134792_"
	 xmlns="http://www.w3.org/2000/svg" xmlns:xlink="http://www.w3.org/1999/xlink" x="0px" y="0px" viewBox="0 0 184.8 238.8"
	 style="enable-background:new 0 0 184.8 238.8;" xml:space="preserve">
<style type="text/css">
	.st0{fill:#7E7E84;}
</style>
<g id="Layer_2-2">
	<path class="st0" d="M0,233.7V0h94.1C116,0.8,139,6.4,155.5,21.4c11.7,10.8,18.2,26,18.1,41.9c-0.1,14.3,1.7,29.4-4.7,42.7
		c-6.3,14.1-18.9,24-32.2,31.1c8.7,16.3,17.3,32.6,25.9,48.9c1.7,3.8,4.5,7.1,7.9,9.5c4.2,2.6,9.5,2.6,14.3,3.3v35.1
		c-13.9,5.8-29.3,6.6-43.7,2c-16.1-5.3-25.6-20.7-32.1-35.4c-8.6-17-16.6-34.3-25.5-51c-8.3,0.3-16.5,0-24.8,0.1v84.2
		C39.3,233.8,19.6,233.9,0,233.7L0,233.7z M59,40.5v70.6c12.9-0.6,26.4,1.7,38.9-2.4c9.8-3.4,16.5-12.5,16.8-22.9
		c0.3-8.3,0.2-16.7-0.5-25c-1.6-10-10.3-17.4-20-19.3C82.6,39.4,70.7,41,59,40.5L59,40.5L59,40.5z"/>
</g>
</svg>
