<?xml version="1.0" encoding="utf-8"?>
<!-- Generator: Adobe Illustrator 28.2.0, SVG Export Plug-In . SVG Version: 6.00 Build 0)  -->
<svg version="1.1" id="Layer_2_00000178886118418524762700000014379249139561015950_"
	 xmlns="http://www.w3.org/2000/svg" xmlns:xlink="http://www.w3.org/1999/xlink" x="0px" y="0px" viewBox="0 0 352 232"
	 style="enable-background:new 0 0 352 232;" xml:space="preserve">
<style type="text/css">
	.st0{fill-rule:evenodd;clip-rule:evenodd;fill:#7E7E84;}
</style>
<g id="Layer_2-2">
	<g id="Layer_1-2">
		<path class="st0" d="M198.9,169.4v50.1c8.1,4.2,17.8,7.3,28.9,9.4s22.8,3.1,35.1,3.1s23.4-1.1,34.2-3.4
			c10.8-2.3,20.3-6.1,28.4-11.3c8.1-5.3,14.6-12.1,19.3-20.6s7.1-19,7.1-31.5c0-9.1-1.4-17-4.1-23.9s-6.6-12.9-11.7-18.2
			c-5.1-5.3-11.2-10.1-18.4-14.3s-15.2-8.2-24.2-12c-6.6-2.7-12.5-5.3-17.7-7.9c-5.2-2.6-9.6-5.2-13.3-7.8s-6.5-5.5-8.4-8.4
			s-3-6.3-3-10.1c0-3.4,0.9-6.5,2.7-9.3s4.3-5.1,7.5-7.1c3.2-2,7.2-3.5,11.9-4.6c4.7-1.1,9.9-1.6,15.6-1.6c4.2,0,8.6,0.3,13.2,0.9
			s9.3,1.6,14,2.9s9.3,3,13.7,4.9s8.5,4.3,12.3,6.9V8.6c-7.6-2.9-15.9-5.1-25-6.5S297.8,0,286.1,0S263,1.3,252.3,3.8
			s-20,6.5-28.1,12c-8.1,5.4-14.5,12.3-19.2,20.7c-4.7,8.4-7,18.4-7,30.1c0,14.9,4.3,27.6,12.9,38.2s21.7,19.4,39.2,26.8
			c6.9,2.8,13.3,5.6,19.2,8.3s11.1,5.5,15.4,8.4c4.3,2.9,7.8,6.1,10.2,9.5s3.8,7.4,3.8,11.7c0,3.2-0.8,6.2-2.4,9s-3.9,5.2-7.1,7.2
			s-7.1,3.6-11.9,4.8c-4.8,1.1-10.3,1.7-16.7,1.7c-10.9,0-21.6-1.9-32.2-5.7C217.9,182.7,208.1,177,198.9,169.4L198.9,169.4
			L198.9,169.4L198.9,169.4z M114.8,46.1H179V5H0v41.1h63.9V229h50.9V46.1L114.8,46.1z"/>
	</g>
</g>
</svg>
