<?xml version="1.0" encoding="UTF-8"?>
<svg id="Layer_2" data-name="Layer 2" xmlns="http://www.w3.org/2000/svg" width="169.27" height="229.74" viewBox="0 0 169.27 229.74">
  <defs>
    <style>
      .cls-1 {
        fill: #fcfdfe;
        stroke-width: 0px;
      }
    </style>
  </defs>
  <g id="Layer_2-2" data-name="Layer 2">
    <g id="Layer_1-2" data-name="Layer 1-2">
      <path class="cls-1" d="M124.28,106.33c9.87,3.43,19.36,6.96,27.51,13.36,11.17,8.74,17.57,19.93,17.38,34.41-.1,7.51.54,15.15-.62,22.5-2.93,18.5-14.2,31.34-30.02,40.44-19.01,10.92-39.8,13.56-61.31,12.5-18.1-.89-35.35-4.73-50.43-15.3-14.92-10.45-23.29-25.12-26.44-42.9-.31-1.75-.23-3.56-.36-5.68,1.55-.11,2.76-.27,3.96-.27,14.2-.02,28.41.02,42.61-.03,2.25,0,3.74.12,4.46,2.96,3.54,13.83,12.19,21.44,26.55,22.49,6.27.46,12.84-.18,18.96-1.6,10.53-2.46,17.26-11.15,18.18-21.92.25-2.91.35-5.84.35-8.76.02-16.83-7.63-26.3-24.22-29.25-6.26-1.11-12.71-1.25-19.08-1.6-4.14-.23-8.29-.04-12.8-.04-.15-3.39-.38-6.41-.39-9.43-.06-7.66.16-15.32-.1-22.98-.12-3.47,1.25-4.26,4.36-4.22,6.68.08,13.38.15,20.03-.3,7.07-.48,13.77-2.52,18.77-7.92,1.84-1.98,3.57-4.46,4.27-7.02,2.21-8.05,2.35-16.31-.38-24.23-1.02-2.96-3.38-5.85-5.88-7.84-8.82-7.05-31.3-7.88-40.14,4.02-3.38,4.55-5.17,10.27-7.97,16.06H1.81c.48-3.34.72-6.46,1.42-9.48,4.36-18.71,14.96-33.18,31.95-41.76,33.29-16.8,67.14-16.91,100.05.92,17.15,9.29,25.73,24.57,25.73,44.66,0,12.09-1.23,23.29-10.15,32.43-5.85,5.98-12.68,10.36-20.4,13.44-2.03.81-4.09,1.57-6.13,2.35h0Z"/>
    </g>
  </g>
</svg>