<?xml version="1.0" encoding="utf-8"?>
<!-- Generator: Adobe Illustrator 28.2.0, SVG Export Plug-In . SVG Version: 6.00 Build 0)  -->
<svg version="1.1" id="Layer_2_00000163793104274831872770000008885758629361742219_"
	 xmlns="http://www.w3.org/2000/svg" xmlns:xlink="http://www.w3.org/1999/xlink" x="0px" y="0px" viewBox="0 0 199.6 229.7"
	 style="enable-background:new 0 0 199.6 229.7;" xml:space="preserve">
<style type="text/css">
	.st0{fill:#7E7E84;}
</style>
<g id="Layer_2-2">
	<g id="_ffffffff">
		<path class="st0" d="M70.1,0.3c18.7-0.3,37.4-0.4,56.1,0c15.8,48.3,31.1,96.8,46.8,145.2c8.7,28.1,18.3,55.9,26.7,84.1
			c-14.2,0.3-28.4,0.1-42.5,0.1c-6.7-19.9-12.7-40-19-60c-26.3-0.6-52.6-0.1-78.8-0.2c-0.6,1.6-1.3,3.1-1.8,4.8
			c-5.1,18.5-10.5,36.9-15.8,55.3c-13.9,0.4-27.8,0.3-41.6,0c0.7-4,1.8-7.9,3.2-11.7C17.8,169.9,32.4,122,47.1,74.1
			C54.9,49.5,61.6,24.6,70.1,0.3 M97.6,30.1c-9.3,35.3-19.9,70.3-29,105.7c19.7,0.3,39.4,0.3,59.1,0c-7.7-28.7-16.2-57.1-24.2-85.6
			C101.3,43.6,100.2,36.6,97.6,30.1z"/>
	</g>
</g>
</svg>
