<?xml version="1.0" encoding="utf-8"?>
<!-- Generator: Adobe Illustrator 28.2.0, SVG Export Plug-In . SVG Version: 6.00 Build 0)  -->
<svg version="1.1" id="Layer_2_00000053541196465399451300000017633750019232757926_"
	 xmlns="http://www.w3.org/2000/svg" xmlns:xlink="http://www.w3.org/1999/xlink" x="0px" y="0px" viewBox="0 0 413.9 255.6"
	 style="enable-background:new 0 0 413.9 255.6;" xml:space="preserve">
<style type="text/css">
	.st0{fill:#7E7E84;}
	.st1{fill-rule:evenodd;clip-rule:evenodd;fill:#7E7E84;}
</style>
<g id="Layer_2-2_00000006687561208484901320000012009290690296029077_">
	<g id="Layer_2-2">
		<g id="Layer_1-2">
			<g>
				<path class="st0" d="M116.6,92.8c0,5.2,0.6,9.5,1.5,12.7c1.1,3.1,2.5,6.5,4.4,10.2c0.7,1.2,1,2.3,1,3.3c0,1.4-0.8,2.8-2.6,4.3
					l-8.7,6c-1.2,0.8-2.5,1.3-3.6,1.3c-1.3,0-2.8-0.7-4.1-2c-1.9-2.1-3.6-4.4-4.9-6.7c-1.3-2.4-2.8-5.1-4.3-8.4
					c-10.8,13.1-24.2,19.6-40.5,19.6c-11.5,0-20.8-3.4-27.5-10.2s-10.2-15.9-10.2-27.3c0-12.1,4.1-21.9,12.6-29.3
					c8.4-7.4,19.5-11.1,33.7-11.1c4.7,0,9.5,0.5,14.6,1.2c5.1,0.7,10.3,1.9,15.8,3.1V49.1c0-10.8-2.2-18.3-6.5-22.7
					c-4.4-4.4-11.8-6.5-22.4-6.5c-4.8,0-9.8,0.6-14.9,1.9S40,24.5,35.2,26.5c-2.2,1-3.8,1.5-4.8,1.9c-1,0.3-1.7,0.5-2.2,0.5
					c-1.9,0-2.9-1.4-2.9-4.4v-7c0-2.3,0.3-4,1-5c0.7-1,1.9-2,3.8-3C34.9,6.8,40.7,4.7,47.5,3C54.2,1.1,61.4,0.3,69,0.3
					c16.4,0,28.4,3.8,36.1,11.5c7.6,7.7,11.4,19.4,11.4,35v46.1L116.6,92.8L116.6,92.8z M60.8,114.4c4.5,0,9.2-0.8,14.2-2.6
					c4.9-1.7,9.3-4.8,13.1-9.1c2.2-2.7,3.8-5.7,4.7-9.1S94,86.1,94,81.3v-6c-4-1-8.3-1.9-12.7-2.4c-4.4-0.6-8.7-0.8-12.9-0.8
					c-9.2,0-16,1.9-20.5,5.7s-6.7,9.2-6.7,16.3c0,6.7,1.7,11.7,5.1,15.1C49.6,112.7,54.4,114.4,60.8,114.4L60.8,114.4L60.8,114.4z
					 M171.3,129.8c-2.5,0-4.1-0.4-5.2-1.4c-1.1-0.8-2.1-2.8-2.9-5.6L130.9,12.9c-0.8-2.8-1.2-4.7-1.2-5.7c0-2.3,1.1-3.5,3.3-3.5
					h13.5c2.6,0,4.4,0.4,5.4,1.4c1.1,0.8,1.9,2.8,2.8,5.6l23.1,94.1l21.5-94.1c0.7-2.8,1.5-4.7,2.6-5.6c1.1-0.8,3-1.4,5.5-1.4h11
					c2.6,0,4.4,0.4,5.5,1.4c1.1,0.8,2.1,2.8,2.6,5.6l21.7,95.3l23.8-95.3c0.8-2.8,1.8-4.7,2.8-5.6c1.1-0.8,2.9-1.4,5.4-1.4H293
					c2.2,0,3.5,1.2,3.5,3.5c0,0.7-0.1,1.4-0.3,2.3c-0.1,0.8-0.4,2-1,3.5L261.9,123c-0.8,2.8-1.8,4.7-2.9,5.6
					c-1.1,0.8-2.9,1.4-5.2,1.4h-11.9c-2.6,0-4.4-0.4-5.5-1.4c-1.1-1-2.1-2.8-2.6-5.7l-21.3-91.7l-21.2,91.5
					c-0.7,2.8-1.5,4.7-2.6,5.7c-1.1,1-3,1.4-5.5,1.4H171.3L171.3,129.8z M348.1,133.6c-7.2,0-14.3-0.8-21.2-2.6
					c-6.9-1.7-12.2-3.5-15.8-5.7c-2.2-1.3-3.7-2.7-4.3-4c-0.6-1.3-0.8-2.7-0.8-4v-7.2c0-3,1.1-4.4,3.1-4.4c0.8,0,1.7,0.1,2.5,0.4
					c0.8,0.3,2,0.8,3.5,1.4c4.7,2.1,9.8,3.8,15.1,5c5.5,1.2,10.9,1.7,16.4,1.7c8.6,0,15.4-1.5,20.1-4.7c4.7-3.1,7.2-7.7,7.2-13.5
					c0-4-1.2-7.2-3.7-9.9s-7.2-5.1-13.9-7.4l-19.9-6.5c-10.1-3.3-17.5-8.1-22-14.5c-4.5-6.3-6.9-13.2-6.9-20.6
					c0-6,1.2-11.2,3.7-15.8s5.8-8.5,9.9-11.7c4.1-3.3,8.8-5.7,14.3-7.4S346.7,0,352.7,0c3,0,6.2,0.1,9.2,0.6c3.1,0.4,6.1,1,9,1.5
					c2.8,0.7,5.4,1.4,7.8,2.3c2.5,0.8,4.4,1.7,5.8,2.6c1.9,1.1,3.3,2.3,4.1,3.5c0.8,1.1,1.2,2.7,1.2,4.7v6.7c0,3-1.1,4.6-3.1,4.6
					c-1.1,0-2.9-0.6-5.2-1.7c-7.8-3.7-16.7-5.6-26.5-5.6c-7.8,0-14,1.3-18.3,4s-6.5,6.9-6.5,12.7c0,4,1.4,7.4,4.1,10.1
					s7.8,5.4,15.1,7.8l19.5,6.4c9.9,3.3,17,7.8,21.3,13.6s6.3,12.5,6.3,19.9c0,6.1-1.2,11.7-3.6,16.5c-2.5,4.8-5.8,9.1-10.1,12.5
					c-4.3,3.5-9.4,6.1-15.2,7.9C361.7,132.6,355.2,133.6,348.1,133.6L348.1,133.6L348.1,133.6z"/>
				<g>
					<path class="st1" d="M374.1,202.7c-45.2,34.6-111,52.9-167.6,52.9c-79.3,0-150.7-30.3-204.7-80.6c-4.3-4-0.4-9.4,4.7-6.3
						c58.4,35,130.4,56.2,204.8,56.2c50.2,0,105.4-10.8,156.2-33C375.1,188.3,381.6,197,374.1,202.7L374.1,202.7L374.1,202.7z"/>
					<path class="st1" d="M393,180.5c-5.8-7.7-38.2-3.7-53-1.9c-4.4,0.6-5.1-3.4-1.1-6.4c25.9-18.8,68.4-13.4,73.4-7.1
						c4.9,6.4-1.4,50.3-25.6,71.4c-3.7,3.3-7.3,1.5-5.6-2.7C386.6,219.8,398.8,188.1,393,180.5L393,180.5L393,180.5z"/>
				</g>
			</g>
		</g>
	</g>
</g>
</svg>
