<?xml version="1.0" encoding="utf-8"?>
<!-- Generator: Adobe Illustrator 28.2.0, SVG Export Plug-In . SVG Version: 6.00 Build 0)  -->
<svg version="1.1" id="Layer_2_00000094589497425060248270000016703675804752817055_"
	 xmlns="http://www.w3.org/2000/svg" xmlns:xlink="http://www.w3.org/1999/xlink" x="0px" y="0px" viewBox="0 0 198.2 231.8"
	 style="enable-background:new 0 0 198.2 231.8;" xml:space="preserve">
<style type="text/css">
	.st0{fill:#7E7E84;}
</style>
<g id="Layer_2-2">
	<path class="st0" d="M162.8,49.6c-3.2,0.3-2.5-2.1-2.6-3.8c-0.7-12.8-1.2-25.7-2.1-38.5C158,4.9,156.7,2.4,156,0l-0.6,0.4
		c1,15.6,2,31.2,3,46.9c-4.3,1-9.4-1.4-9.8,5.4c-0.4-0.1-0.9-0.3-1.3-0.4c-0.5-2.9-1-5.8-1.5-8.7c-0.7,0.1-1.4,0.2-2.2,0.2
		c0.1,2,0.2,4,0.3,6.3c-0.8-0.5-1.3-1.1-1.9-1.3c-1.1-0.3-2.3-0.5-3.4-0.7c0.1,1.2,0.1,2.3,0.3,3.5c0.1,0.7,0.5,1.3,0.8,2
		c1.6,3.8,2,6.9-3,8.9c-2.7,1-4.9,3.6-7,5.7c-4.4,4.6-8.5,9.4-13,13.8c-1.5,1.4-3.9,2.2-6,2.4c-8.1,0.9-16.3,1.7-24.4,2.2
		c-10.8,0.7-21.6,0.9-32.3,1.8c-2.8,0.2-6.1,1.2-8.2,2.9c-6.2,5-11.7,11.1-18,15.9c-7.4,5.7-14.8,11.8-25.3,9.3
		c-0.7-0.2-1.5,0.4-2.3,0.7c0,0.6,0.1,1.1,0.1,1.6c5.2,0,10.5,0.1,15.7-0.1c1.2,0,2.6-0.5,3.6-1.3c8.5-6.7,16.9-13.5,25.4-20.2
		c1.7-1.3,3.5-3,5.4-3.3c4.5-0.8,9.1-1.1,13.7-1.3c10.4-0.4,20.8-0.7,31.1-0.9c3.3-0.1,6.6,0,9.9,0c0.2,0.4,0.3,0.8,0.5,1.2
		c-0.9,1-1.9,1.9-2.6,2.9c-4.7,6.7-9.3,13.4-13.9,20.1c-2,2.9-3.9,5.8-5.7,8.8c-1.1,1.9-2,4-3.2,6.2c10.5,2.1,18.7,0.1,26.3-5.7
		c7.5-5.7,15.7-10.3,23.6-15.4c0.3,0.3,0.6,0.6,0.9,0.9c-1.3,1.5-2.4,3.1-3.9,4.4c-2.7,2.2-5.8,3.8-8.3,6.1
		c-6.3,5.7-12.2,11.9-18.6,17.5c-3.6,3.2-8,5.5-11.9,8.4c-1.9,1.4-4.2,2.9-5.2,4.9c-8.1,16.1-16,32.3-24,48.4
		c-1,1.9-2.3,3.6-3.5,5.5c-5.2,7.9-10.3,15.9-15.4,23.9c-0.2,0.2,0.1,0.7,0.4,2c1.8-1.3,3.7-1.9,4.6-3.3c4.4-7.2,10-13.6,13.8-21.1
		c8-15.7,16-31.4,23.8-47.1c1.1-2.2,2.4-3.4,4.9-4.2c2.1-0.6,3.9-2.6,5.4-4.3c1.4-1.6,2-4.1,3.5-5.5c3.2-2.9,6.9-5.2,10.4-7.8
		c6.2-4.5,12.7-8.6,18.5-13.5c8-6.8,13.8-15.4,17.9-25.2c0.5-1.2,2.7-2.8,3.7-2.5c1.2,0.3,2.6,2.3,2.7,3.7c0.2,2.4-0.1,5-1,7.2
		c-2.5,5.6-0.9,10.2,2.7,14.4c7.8,9,15.8,17.9,23.8,26.8c1,1.1,2.6,1.6,3.9,2.4c0.4-0.3,0.7-0.7,1-1c-0.6-1.2-0.9-2.6-1.8-3.5
		c-6.1-6.9-12.2-13.7-18.4-20.5c-1.5-1.7-3.2-3.3-4.6-5.1c-0.7-0.8-1.2-2-1.3-3c-0.6-9.5-1-19-1.6-28.5c-0.6-10,3.2-13.2,13-10.7
		c2.8,0.7,5.5,1.8,8.2,2.7c2.2,0.7,4.4,1.6,6.7,1.7c1.5,0.1,3.8-0.5,4.5-1.6c1.9-3.1,4.2-4.1,7.6-3.4c0.6,0.1,1.4-0.6,2.8-1.2
		c-1.6-1.4-2.7-2.3-3.1-2.7c-2.6,0.6-4.4,1.1-6.2,1.4s-3.8,0.2-5.6,0.7c-6.7,1.8-12.9,0.1-18.9-2.8c-1.1-0.5-1.9-2.6-1.9-3.9
		c0-1,1.5-2.3,2.6-2.8c5.1-2.4,6.1-5.2,3.8-10.4c-1-2.2-1.5-4.6-2.2-6.9c10.3-9.3,22.1-16.1,34.7-21.9c-3.2,0.1-6.1,0.9-8.9,2
		C179,34.8,169.4,40,162.8,49.6L162.8,49.6L162.8,49.6z"/>
</g>
</svg>
