<?xml version="1.0" encoding="UTF-8"?>
<svg id="Layer_2" data-name="Layer 2" xmlns="http://www.w3.org/2000/svg" width="184.46" height="229.74" viewBox="0 0 184.46 229.74">
  <defs>
    <style>
      .cls-1 {
        fill: #fbfcfe;
        stroke-width: 0px;
      }
    </style>
  </defs>
  <g id="Layer_2-2" data-name="Layer 2">
    <path class="cls-1" d="M47.83,229.57H0V.06C21.12.06,42.26-.22,63.36.43c2.53.09,5.7,4.77,7.28,7.95,19.65,39.72,39.05,79.58,58.55,119.41,1.56,3.18,3.18,6.3,6.39,9.25V.93h48.89v228.73c-19.15,0-38.14.35-57.1-.37-2.88-.11-6.54-4.81-8.17-8.19-19.93-41.61-39.53-83.37-59.26-125.07-1.69-3.55-3.73-6.93-5.61-10.38-1.32-3.25-2.64-6.5-3.99-9.73-2.06,4.38-2.04,7.91-2.06,11.44l-.45,142.24v-.04h0Z"/>
  </g>
</svg>