<?xml version="1.0" encoding="utf-8"?>
<!-- Generator: Adobe Illustrator 28.2.0, SVG Export Plug-In . SVG Version: 6.00 Build 0)  -->
<svg version="1.1" id="Layer_2_00000178178661501804492450000002543097361504970385_"
	 xmlns="http://www.w3.org/2000/svg" xmlns:xlink="http://www.w3.org/1999/xlink" x="0px" y="0px" viewBox="0 0 293.6 225.9"
	 style="enable-background:new 0 0 293.6 225.9;" xml:space="preserve">
<style type="text/css">
	.st0{fill:#7E7E84;}
</style>
<g id="Layer_2-2">
	<g id="Layer_2-3">
		<g id="Outlined_Mnemonics_Logos">
			<g id="Ps">
				<path class="st0" d="M0,218.8V3.6c0-1.5,0.6-2.3,2-2.3c3.5,0,6.7,0,11.4-0.2c4.9-0.2,10-0.2,15.5-0.4s11.4-0.2,17.7-0.4
					C52.9,0,59,0,65.1,0c16.7,0,30.5,2.1,41.9,6.5c10.2,3.6,19.5,9.4,27.2,17.1c6.5,6.7,11.6,14.9,14.8,23.8
					c3.1,8.8,4.7,17.8,4.7,27.2c0,18-4.1,32.8-12.2,44.5s-19.5,20.5-32.7,25.5c-13.8,5.2-29.1,7.1-45.7,7.1c-4.9,0-8.1,0-10.2-0.2
					s-4.9-0.2-8.7-0.2v67.1c0.2,1.5-0.8,2.7-2.2,2.9H2.4C0.8,221.5,0,220.6,0,218.8L0,218.8z M44.3,41.6v70.3
					c2.8,0.2,5.5,0.4,7.9,0.4H63c7.9,0,15.9-1.2,23.4-3.8c6.5-1.9,12.2-5.9,16.7-11.1c4.3-5.2,6.3-12.3,6.3-21.5
					c0.2-6.5-1.4-13-4.7-18.6c-3.5-5.4-8.3-9.6-14.2-11.9c-7.5-3.1-15.7-4.4-24-4.2c-5.3,0-10,0-13.8,0.2
					C48.6,41.2,45.7,41.4,44.3,41.6L44.3,41.6L44.3,41.6z"/>
				<path class="st0" d="M280.5,99.1c-6.1-3.3-12.6-5.7-19.5-7.1c-7.5-1.7-15-2.7-22.8-2.7c-4.1-0.2-8.3,0.4-12.2,1.5
					c-2.6,0.6-4.9,2.1-6.3,4.2c-1,1.7-1.6,3.8-1.6,5.7s0.8,3.8,2,5.4c1.8,2.3,4.3,4.2,6.9,5.7c4.7,2.5,9.6,4.8,14.4,6.9
					c11,3.8,21.5,9,31.3,15.3c6.7,4.4,12.2,10.2,16.1,17.4c3.2,6.7,4.9,14,4.7,21.5c0.2,9.8-2.6,19.7-7.9,27.8
					c-5.7,8.4-13.6,14.9-22.8,18.6c-10,4.4-22.2,6.7-36.8,6.7c-9.4,0-18.5-0.8-27.6-2.7c-7.1-1.2-14.2-3.6-20.7-6.7
					c-1.4-0.8-2.4-2.3-2.2-4v-36.4c0-0.6,0.2-1.5,0.8-1.9s1.2-0.2,1.8,0.2c7.9,4.8,16.3,8.2,25.2,10.2c7.7,2.1,15.9,3.1,24,3.1
					s13.2-1.1,16.9-2.9c3.2-1.5,5.5-5,5.5-8.8c0-2.9-1.6-5.6-4.9-8.4s-10-5.9-19.9-9.8c-10.4-3.8-19.9-8.8-28.9-15.1
					c-6.3-4.6-11.6-10.7-15.4-17.8c-3.2-6.7-4.9-14-4.7-21.3c0-9,2.4-17.6,6.9-25.3c5.1-8.4,12.6-15.1,21.4-19.2
					c9.6-5,21.6-7.3,36-7.3c8.3,0,16.9,0.6,25.2,1.9c6.1,0.8,12,2.5,17.5,4.8c0.8,0.2,1.6,1,2,1.9c0.2,0.8,0.4,1.7,0.4,2.5v34.1
					c0,0.8-0.4,1.7-1,2.1C282.3,99.6,281.3,99.6,280.5,99.1L280.5,99.1z"/>
			</g>
		</g>
	</g>
</g>
</svg>
