<?xml version="1.0" encoding="utf-8"?>
<!-- Generator: Adobe Illustrator 28.2.0, SVG Export Plug-In . SVG Version: 6.00 Build 0)  -->
<svg version="1.1" id="Layer_2_00000180354345625346074860000009088650921521765291_"
	 xmlns="http://www.w3.org/2000/svg" xmlns:xlink="http://www.w3.org/1999/xlink" x="0px" y="0px" viewBox="0 0 242.9 251.6"
	 style="enable-background:new 0 0 242.9 251.6;" xml:space="preserve">
<style type="text/css">
	.st0{fill:#7E7E84;}
</style>
<g id="Layer_3">
	<g>
		<path class="st0" d="M146.3,251.6c-19.3,0-25.5-15.6-27.8-21.2c-4-9.9-4-47.1-3.5-67.6c0.1-3.4,3-6.2,6.4-6.1
			c3.4,0.1,6.2,3,6.1,6.4c-0.9,32.9,0.6,57.6,2.6,62.6c3.3,8.1,7.7,15.8,22.6,12.6c14.4-3.1,19.3-8,21.7-21.9
			c2-11.4,5.9-43.9,6.4-50.4c0.3-3.4,3.3-6,6.7-5.8c3.4,0.3,6,3.2,5.8,6.7c-0.5,6.8-4.4,39.6-6.5,51.6c-3.3,18.8-12,27.8-31.3,31.9
			C152.1,251.3,149,251.6,146.3,251.6z"/>
	</g>
	<g>
		<path class="st0" d="M52.2,184.4c-2,0-3.9-0.4-5.5-0.9c-7.1-2.4-13.7-9.4-20-21.4c-4.8-9-9.4-20.8-13.7-35.1
			C5.4,102.1,0.6,76,0.1,67.4c-1.3-25.9,5.5-44.3,20.2-54.8c28.7-20.3,76.3-1.3,78.3-0.4c3.2,1.3,4.7,4.9,3.4,8.1
			c-1.3,3.2-4.9,4.7-8.1,3.4l0,0c-0.4-0.2-43.3-17.3-66.4-0.9c-11,7.8-16,22.6-15,43.9c0.3,6.9,4.8,31.8,12.3,56.6
			c12.5,41,22.9,47.3,25.8,48.3c1,0.3,3.7,1.2,8.4-4.4c11.3-13.5,21.3-24,21.7-24.5c2.4-2.5,6.3-2.6,8.8-0.2
			c2.5,2.4,2.6,6.3,0.2,8.8c-0.1,0.1-10.2,10.6-21.1,23.8C62.8,182.3,57,184.4,52.2,184.4z"/>
	</g>
	<g>
		<path class="st0" d="M198.6,156.1c-1.2,0-2.4-0.3-3.5-1.1c-2.9-1.9-3.6-5.8-1.7-8.7c32.1-47.7,40.8-101.5,33.1-111.4
			c-26.4-33.8-72.3-19.7-76.6-18.3c-0.2,0.1-0.5,0.2-0.8,0.3c-3.5,1.1-6.6-0.8-7.7-3.4c-1.3-2.9-0.2-6.3,2.5-7.9
			c0.2-0.1,0.7-0.4,1.5-0.6c0,0,0,0,0,0c0,0,0,0,0,0c4.5-1.7,17.5-5.2,32.7-5c24.3,0.3,44.5,9.7,58.2,27.2
			c14.2,18.2-1.9,80.6-32.5,126.1C202.6,155.1,200.6,156.1,198.6,156.1z"/>
	</g>
	<g>
		<path class="st0" d="M200.1,177.6c-5.7,0-10.9-0.8-14.3-2.9c-4.1-2.4-4.9-5.9-5-7.7c-0.7-12.3,4.7-17.2,9.2-19.3
			c-2.4-3-5.6-7.1-8.1-13.2c-0.3-0.8-1.6-3-2.8-5.3c-8.4-15.1-24.2-43.3-13-59.2c4.8-6.9,13.3-10,25.8-9.4
			c-6-14.4-25.1-44.7-64.6-45.4c-12.9-0.2-23.4,3.7-31.3,11.6C77.9,45,78.5,78.5,78.5,78.8c0.1,3.4-2.6,6.3-6.1,6.4
			c-3.4,0.1-6.3-2.6-6.4-6.1c0-1.6-0.8-39,21-61C97.4,7.7,111,2.5,127.4,2.8C157.6,3.3,177,18.6,188,31.4
			c12.7,14.8,17.9,30.1,18.4,34.8c0.5,5.1-3,7.2-5.1,7.6l-2.2,0.1c-11.9-1.9-20-0.8-22.8,3.3c-6.6,9.5,8.7,37,13.7,46
			c1.7,3.1,2.9,5.1,3.5,6.6c1.9,4.7,4.4,7.8,6.6,10.5c1.9,2.4,3.7,4.6,4.5,7.4c0.9,0.7,6.1,3.8,24.3,0c9.8-2,12.8,2.2,13.7,5
			c3.4,10.2-15.6,19.3-17.7,20.3C219,175.5,209,177.6,200.1,177.6z M193.1,164.5c4.6,1.5,18.5,0.7,26.2-2.8
			c-9.6,0.8-16.8-0.3-21.5-3.4c0,0-0.1,0-0.1-0.1c-0.1,0-0.2,0.1-0.4,0.1C194.7,159,193.1,159.4,193.1,164.5z"/>
	</g>
	<g>
		<path class="st0" d="M105.4,155.9c-7.9,8.9-5.6,10.4-21.5,13.7c-16,3.3-6.6,9.2-0.5,10.7c7.5,1.9,24.7,4.5,36.4-11.8
			c3.6-5,0-12.9-4.9-14.9C112.6,152.6,109.4,151.4,105.4,155.9L105.4,155.9L105.4,155.9z"/>
		<path class="st0" d="M94.3,187.9c-3.9,0-8-0.5-12.3-1.6c-6.1-1.5-13.2-5.6-13.1-12c0.2-8,10.5-10.1,13.8-10.8
			c10.3-2.1,10.7-2.6,13.9-6.7c1.1-1.3,2.4-3,4.2-5c0.1-0.1,0.2-0.2,0.2-0.2c7-7.6,14-4.7,16.4-3.7c4.4,1.8,8,6.1,9.5,11.3
			c1.3,4.7,0.6,9.4-1.9,13C117.5,182.5,106.8,187.9,94.3,187.9z M88.4,175c11.3,1.9,20.2-1.5,26.3-10.1c0.3-0.5,0.4-1.3,0.1-2.3
			c-0.5-1.7-1.7-2.9-2.3-3.2c-0.3-0.1-0.9-0.4-1.2-0.4c-0.2,0.1-0.6,0.4-1.3,1.2c-0.1,0.1-0.1,0.1-0.2,0.2c-1.4,1.6-2.5,3-3.5,4.2
			C101.7,170.4,99,172.6,88.4,175z"/>
	</g>
	<g>
		<path class="st0" d="M104.8,162c-2.8,0-5.3-1.9-6-4.7c-8.4-0.8-16.4-4.7-22.7-11.1c-8.6-8.9-12.4-21.3-10.7-33.9
			c1.7-12.5,1.1-23.5,0.7-29.5c-0.1-1.7-0.2-3-0.2-3.9c0-2.8,1.3-6.3,11-11.2c3.5-1.8,10.6-4.9,18.4-5.7c13.6-1.4,23,5,25.7,17.5
			c6.7,30.9,0.5,44.7-4,54.8c-0.8,1.8-1.5,3.4-2.1,5l-0.5,1.4c-2.1,5.6-4,10.8-3.5,14.1c0.5,3.4-1.8,6.6-5.2,7.1
			C105.5,161.9,105.2,162,104.8,162z M78.6,81.2c0,0.3,0,0.6,0.1,0.9c0.4,6.4,1.1,18.2-0.8,31.9c-1.2,8.8,1.4,17.4,7.3,23.5
			c4.1,4.3,9.3,6.8,14.8,7.3c0.8-2.8,1.9-5.6,3-8.6l0.5-1.4c0.7-2,1.6-3.8,2.4-5.8c4-9,9-20.1,3.2-47c-1.2-5.4-3.9-6.8-6.1-7.4
			C95.2,72.5,82.8,78.3,78.6,81.2z"/>
	</g>
	<g>
		<path class="st0" d="M96,78.4c-0.2,1.2,2.2,4.4,5.2,4.8c3.1,0.4,5.7-2.1,5.8-3.2c0.2-1.2-2.2-2.5-5.2-2.9
			C98.8,76.6,96.1,77.2,96,78.4L96,78.4L96,78.4z"/>
		<path class="st0" d="M101.9,85.3c-0.3,0-0.7,0-1-0.1c-2.1-0.3-4.3-1.6-5.8-3.6c-0.6-0.9-1.4-2.1-1.3-3.4l0-0.2
			c0.1-0.6,0.4-1.4,1.3-2.1c1.4-1.1,4-1.5,6.9-1.1c3.8,0.5,7.4,2.3,7,5.3C108.8,82.4,105.7,85.3,101.9,85.3z M98.4,79.1
			c0.6,0.8,1.7,1.9,3.1,2c1.3,0.2,2.5-0.5,3.1-1.1c-0.6-0.3-1.6-0.7-3.1-0.9C100.1,78.9,99.1,79,98.4,79.1z"/>
	</g>
	<g>
		<path class="st0" d="M189.1,76c0.2,1.2-2.2,4.4-5.2,4.8c-3.1,0.4-5.7-2.1-5.9-3.2c-0.2-1.2,2.2-2.5,5.2-2.9S188.9,74.8,189.1,76
			L189.1,76L189.1,76z"/>
		<path class="st0" d="M183.1,81.9c-3.3,0-5.9-2.6-6.2-4.2c-0.3-2.2,3-3.7,6.1-4.1c2.6-0.4,5,0,6.1,0.9c0.4,0.3,0.7,0.7,0.8,1
			l0.1,0.1l0.1,0.4c0.3,1.9-2.6,5.5-6.1,6C183.7,81.9,183.4,81.9,183.1,81.9z M185.1,75.5c-0.5,0-1.1,0-1.7,0.1
			c-2.8,0.4-4.3,1.5-4.4,1.8c0.1,0.5,2.1,2.7,4.7,2.3c2.5-0.3,4.3-2.8,4.4-3.6l0,0C187.9,75.9,186.9,75.5,185.1,75.5z"/>
	</g>
	<g>
		<path class="st0" d="M200,67.8c0.5,9.3-2,15.7-2.3,25.6c-0.5,14.4,6.9,31-4.2,47.6"/>
		<path class="st0" d="M193.5,147.2c-1.2,0-2.4-0.3-3.5-1.1c-2.9-1.9-3.6-5.8-1.7-8.6c6.6-9.8,5.4-19.7,4.1-30.2
			c-0.6-4.6-1.1-9.4-1-14c0.2-4.8,0.8-8.8,1.3-12.4c0.7-4.4,1.3-8.2,1-12.7c-0.2-3.4,2.5-6.4,5.9-6.6c3.4-0.2,6.4,2.5,6.6,5.9
			c0.3,5.9-0.4,10.7-1.1,15.3c-0.5,3.5-1.1,6.9-1.2,10.9c-0.1,3.7,0.4,7.8,0.9,12.2c1.3,11.1,3,25-6.1,38.7
			C197.5,146.2,195.5,147.2,193.5,147.2z"/>
	</g>
</g>
</svg>
