<?xml version="1.0" encoding="utf-8"?>
<!-- Generator: Adobe Illustrator 28.2.0, SVG Export Plug-In . SVG Version: 6.00 Build 0)  -->
<svg version="1.1" id="Layer_2_00000043421524182651130460000011131966817087829933_"
	 xmlns="http://www.w3.org/2000/svg" xmlns:xlink="http://www.w3.org/1999/xlink" x="0px" y="0px" viewBox="0 0 257.1 229.3"
	 style="enable-background:new 0 0 257.1 229.3;" xml:space="preserve">
<style type="text/css">
	.st0{fill:#7E7E84;}
</style>
<g id="Layer_2-2">
	<circle class="st0" cx="128.5" cy="114.7" r="23.5"/>
	<path class="st0" d="M128.5,167.2C56.5,167.2,0,144.2,0,114.7s56.5-52.5,128.5-52.5s128.5,23.1,128.5,52.5S200.6,167.2,128.5,167.2
		L128.5,167.2z M128.5,73.3c-69.2,0-117.4,21.8-117.4,41.3s48.2,41.4,117.4,41.4s117.4-21.8,117.4-41.4S197.7,73.3,128.5,73.3z"/>
	<path class="st0" d="M180.1,229.3c-11.4,0-25.2-6.2-40.1-18.4c-19.8-16.1-39.9-40.9-56.7-70C66.5,111.9,55.1,82,51,56.8
		c-4.3-27,0.5-46,13.5-53.5l0,0c13-7.5,31.8-2.2,53.1,15.1c19.8,16.1,39.9,40.9,56.7,70c36,62.4,44.3,122.8,18.8,137.6
		C189.2,228.2,184.8,229.3,180.1,229.3L180.1,229.3z M77.6,11.1c-2.8,0-5.4,0.6-7.5,1.9l0,0c-8.6,5-11.5,20.3-8,42.1
		c3.8,23.9,14.8,52.4,30.9,80.3s35.3,51.6,54.1,66.9c17.1,13.9,31.9,19.1,40.4,14.1c16.9-9.8,11.7-62.4-22.9-122.3
		c-16.1-27.9-35.3-51.6-54.1-66.9C97.7,16.6,86.2,11.1,77.6,11.1L77.6,11.1z"/>
	<path class="st0" d="M77.3,229.1c-4.6,0-8.8-1-12.6-3.2c-25.5-14.7-17.3-75.2,18.8-137.6l0,0c36.1-62.4,84.3-99.7,109.8-85
		c25.5,14.7,17.3,75.2-18.8,137.6C143.7,194,104.1,229.1,77.3,229.1z M93.1,93.9c-34.6,59.9-39.8,112.5-22.9,122.3
		c17,9.7,59.9-21.1,94.5-81c34.6-59.9,39.8-112.5,22.9-122.3C170.7,3.1,127.7,34,93.1,93.9L93.1,93.9L93.1,93.9z"/>
</g>
</svg>
