<?xml version="1.0" encoding="UTF-8"?>
<svg id="Layer_2" data-name="Layer 2" xmlns="http://www.w3.org/2000/svg" width="329.53" height="52.52" viewBox="0 0 329.53 52.52">
  <defs>
    <style>
      .cls-1 {
        fill: #2e286d;
        stroke-width: 0px;
      }
    </style>
  </defs>
  <g id="Layer_2-2" data-name="Layer 2">
    <g id="Layer_2-2" data-name="Layer 2-2">
      <g id="Camada_1" data-name="Camada 1">
        <path class="cls-1" d="M9.2,27.32l13.9,8v-8.5l-8-4.6-5.8,3.4c-.5.3-.7.9-.4,1.4,0,0,.2.2.3.3ZM38.5,25.52l-5.8-3.4-8,4.6v8.5l13.9-8c.5-.3.7-.9.4-1.4-.2-.1-.3-.2-.5-.3ZM23.1,17.52l-6.5,3.7,7.2,4.2,7.2-4.2-6.5-3.7c-.3-.3-.9-.3-1.4,0Z"/>
        <path class="cls-1" d="M43.6,10.13L28,1.12c-2.6-1.5-5.7-1.5-8.3,0L4.1,10.13C1.6,11.63,0,14.33,0,17.32v17.9c0,3,1.6,5.7,4.1,7.2l15.6,9c1.3.7,2.7,1.1,4.1,1.1s2.9-.4,4.1-1.1l15.6-9c2.6-1.5,4.1-4.2,4.1-7.2v-18c.1-2.9-1.5-5.6-4-7.1h0ZM23.1,51.02c-.9-.1-1.8-.4-2.6-.9l-15.6-9c-2.1-1.2-3.4-3.5-3.4-5.9v-18c0-.9.2-1.8.5-2.7l21.1,12.2v24.3h0ZM24.6,35.23c-.5.3-1.1.3-1.5,0v-8.5l-8-4.6,1.5-.9L2.8,13.23c.5-.8,1.3-1.4,2.1-1.9L20.5,2.33c1-.6,2.2-.9,3.4-.9s2.4.3,3.4.9l15.6,9c.8.5,1.5,1.1,2.1,1.9l-13.8,8,1.5.9-8,4.6-.1,8.5h0ZM46.3,35.23c0,2.4-1.3,4.7-3.4,5.9l-15.6,9c-.8.5-1.7.8-2.7.9v-24.2l21.1-12.2c.3.8.5,1.7.5,2.7l.1,17.9h0ZM234.68,31v-3.47h0v-2.41c-.15-9.2-1.96-10.86-11.46-10.86s-.15,0-.15,0h-9.95c-1.66,0-2.87,1.21-2.87,2.87s1.21,2.87,2.87,2.87h9.65c4.83,0,5.73.75,5.73,5.43v.3h-15.53c-1.66.15-2.87,1.51-2.87,3.02v2.87c.15,9.2,1.96,10.86,11.76,10.86h.9c9.65,0,11.46-1.66,11.76-10.86v-.75h.15v.15ZM228.64,31.61c-.15,4.52-1.06,5.43-5.73,5.43h-.6c-4.83,0-5.73-.75-5.73-5.43v-.3h12.22l-.15.3h0ZM329.53,27.39v-2.26c-.15-9.2-1.96-10.86-11.46-10.86s-.15,0-.15,0h-9.95c-1.66,0-2.87,1.21-2.87,2.87s1.21,2.87,2.87,2.87h9.65c4.83,0,5.73.75,5.73,5.43v.3h-15.38c-1.66.15-2.87,1.51-2.87,3.02v2.87c.15,9.2,1.96,10.86,11.76,10.86h.9c9.65,0,11.46-1.66,11.76-10.86v-4.22h0ZM323.2,31.61c-.15,4.52-1.06,5.43-5.73,5.43h-.45c-4.83,0-5.73-.75-5.73-5.43v-.3h12.22l-.3.3h0ZM201.2,14.27h-3.77c-9.65,0-11.46,1.66-11.76,10.86v14.63c.15,1.66,1.36,2.87,3.02,2.87s2.87-1.21,3.02-2.87v-14.33c.15-4.52,1.06-5.43,5.73-5.43h3.62c1.66,0,2.87-1.21,2.87-2.87s-1.21-2.87-2.71-2.87h0ZM255.94,17.28c0-1.66-1.21-2.87-2.87-2.87h-.3c-2.41,0-4.07.15-5.58.3v-3.47c0-1.66-1.36-3.02-3.02-3.02s-3.02,1.36-3.02,3.02v28.2c0,1.66,1.36,3.02,3.02,3.02s3.02-1.51,3.02-3.02v-14.03c.15-4.52,1.06-5.43,5.73-5.43h.15c1.66-.15,2.87-1.36,2.87-2.71h0ZM265.14,42.62c1.66,0,2.87-1.21,3.02-2.87v-22.32c0-1.66-1.36-3.02-3.02-3.02s-3.02,1.51-3.02,3.02v22.32c.15,1.51,1.36,2.87,3.02,2.87ZM87.49,31.76v-4.07c0-1.06-1.06-1.81-2.11-1.81h-7.24c-1.66,0-2.87,1.21-2.87,2.87s1.21,2.87,2.87,2.87h3.32v.3c-.15,4.52-1.06,5.43-5.73,5.43h-.6c-4.83,0-5.73-.75-5.73-5.43v-6.18c0-4.52.9-5.43,5.73-5.43h9.65c1.66,0,2.87-1.21,2.87-2.87s-1.36-3.17-3.02-3.17h-9.95c-9.65,0-11.46,1.66-11.76,10.86v4.07h0v2.26c.15,9.2,1.96,10.86,11.76,10.86h1.06c9.8.3,11.61-1.36,11.76-10.56h0ZM148.87,39.75v-14.63c-.15-9.2-1.96-10.86-11.76-10.86h-.9c-9.65,0-11.46,1.66-11.76,10.86v14.63c.15,1.66,1.36,2.87,3.02,2.87s2.71-1.21,2.71-2.87v-14.33c.15-4.52,1.06-5.43,5.73-5.43h.6c4.83,0,5.73.75,5.73,5.43v14.33c.15,1.66,1.36,2.87,3.02,2.87s3.47-1.36,3.62-2.87h0ZM108.9,42.62h6.33c1.66,0,2.87-1.21,2.87-2.87s-1.21-2.87-2.87-2.87h-9.65c-4.83,0-5.73-.9-5.73-5.43v-.3h15.53c1.66,0,2.87-1.21,2.87-2.87v-3.02c-.15-9.2-1.96-10.86-11.76-10.86h-.9c-9.65,0-11.46,1.66-11.76,10.86v4.07h0v2.26c.15,9.05,1.96,10.86,11.16,10.86s.15,0,.15,0l3.77.15h0ZM99.7,25.27c.15-4.52,1.06-5.43,5.73-5.43h.6c4.83,0,5.73.75,5.73,5.43v.3h-12.06v-.3h0ZM179.48,27.39v-2.26c-.15-9.2-1.96-10.86-11.76-10.86h-.9c-9.65,0-11.46,1.66-11.76,10.86v4.07h0v2.26c.15,9.05,1.96,10.86,11.16,10.86s.15,0,.15,0h10.25c1.66,0,2.87-1.21,2.87-2.87s-1.21-2.87-2.87-2.87h-9.65c-4.83,0-5.73-.9-5.73-5.43v-.3h15.53c1.66,0,2.87-1.21,2.87-2.87l-.15-.6h0ZM161.08,25.73v-.3c.15-4.52,1.06-5.43,5.73-5.43h.6c4.83,0,5.73.75,5.73,5.43v.3h-12.06ZM296.66,14.57c-1.36-.3-2.87.15-3.62,1.51h0s0,.15-.15.15v.3l-.3,1.21-5.73,18.85c0,.15-.15.15-.3.15s-.15-.15-.3-.15l-5.58-18.85-.3-1.21v-.45s0-.15-.15-.15h0c-.75-1.21-2.11-1.96-3.62-1.51-1.66.6-2.56,2.11-2.11,3.77l.3,1.21,2.71,9.35.3,1.21,2.11,7.54c.9,2.87,3.47,4.83,6.48,4.83s5.43-1.81,6.33-4.37h0l2.41-8.14.3-1.21,2.71-9.35.3-1.21c.9-1.36,0-3.17-1.81-3.47h0Z"/>
      </g>
    </g>
  </g>
</svg>