<?xml version="1.0" encoding="UTF-8"?>
<svg id="Layer_2" data-name="Layer 2" xmlns="http://www.w3.org/2000/svg" width="320.06" height="320.07" viewBox="0 0 320.06 320.07">
  <defs>
    <style>
      .cls-1 {
        stroke-width: 0px;
      }
    </style>
  </defs>
  <g id="Layer_2-2" data-name="Layer 2">
    <path class="cls-1" d="M254.92,295.64v-6.1c0-41,0-82,0-122.99,0-1.83-.08-3.68.09-5.5.59-6.22,5.44-10.8,11.54-11.01,6.18-.21,11.64,4.46,12.42,10.7.18,1.48.09,3,.09,4.5,0,46.5,0,93,0,139.49,0,11.09-4.27,15.33-15.43,15.33-82.83,0-165.66,0-248.49,0-10.93,0-15.15-4.2-15.15-15.09C0,221.97,0,138.98,0,55.98c0-10.49,4.43-14.98,14.77-14.98,47.16-.01,94.33-.02,141.49,0,9.35,0,15.45,6.86,13.42,14.92-1.31,5.23-5.55,8.83-11.13,9.14-3.66.2-7.33.08-11,.09-39,0-78,0-116.99,0-1.95,0-3.91,0-6.15,0v230.5h230.5Z"/>
    <path class="cls-1" d="M278.48,24.15c-19.8,0-38.27.04-56.74-.02-7.52-.02-12.5-4.44-12.81-11.1-.35-7.5,4.33-12.89,11.98-12.92,29.16-.15,58.31-.13,87.47-.01,6.65.03,11.58,5.12,11.61,11.86.1,28.99.11,57.98-.01,86.97-.03,7.53-5.08,12.3-12.21,12.24-7.06-.07-11.8-4.98-11.83-12.6-.07-16.99-.03-33.99-.03-50.98,0-1.6,0-3.2,0-4.8-.54-.39-1.09-.78-1.63-1.17-1.6,2.03-3.02,4.25-4.83,6.06-47.43,47.5-94.87,94.99-142.42,142.36-2.49,2.48-5.71,4.78-9.01,5.77-4.98,1.49-9.75-1.12-12.36-5.41-2.68-4.41-2.44-9.83,1.12-13.94,3.27-3.76,6.92-7.2,10.46-10.73,45.69-45.7,91.39-91.4,137.09-137.1,1.14-1.14,2.21-2.37,4.17-4.47Z"/>
  </g>
</svg>