<?xml version="1.0" encoding="UTF-8"?>
<svg id="Layer_2" data-name="Layer 2" xmlns="http://www.w3.org/2000/svg" width="635.53" height="674.21" viewBox="0 0 635.53 674.21">
  <defs>
    <style>
      .cls-1 {
        fill: #fafbfc;
      }

      .cls-1, .cls-2, .cls-3, .cls-4, .cls-5, .cls-6, .cls-7, .cls-8 {
        stroke-width: 0px;
      }

      .cls-2 {
        fill: #3e6e84;
      }

      .cls-3 {
        fill: #fcfdfe;
      }

      .cls-4 {
        fill: #7fc5dd;
      }

      .cls-5 {
        fill: #fbfbfc;
      }

      .cls-6 {
        fill: #37697f;
      }

      .cls-7 {
        fill: #fbfcfc;
      }

      .cls-8 {
        fill: #39a4cb;
      }
    </style>
  </defs>
  <g id="Layer_1-2" data-name="Layer 1">
    <path class="cls-8" d="M102.65.83c1.75-.28,3.51-.8,5.26-.8C256.36,0,404.82,0,553.27,0c20.89,0,35.4,14.62,35.44,35.52.05,23.15.16,46.3.24,69.46-.04,2.5-.12,5-.12,7.5,0,93.33.02,186.66-.04,279.99,0,9.14-.75,18.27-.73,27.41.02,10.97.7,21.94.69,32.91,0,6.91-.77,13.82-1.23,21.25h-6.69c-140.33,0-280.66,0-420.98,0-19,0-38-.03-56.99-.05.02-.83.05-1.67.05-2.5,0-155.39,0-310.78,0-466.18,0-1.49-.16-2.99-.24-4.48ZM389.3,226.79c2.45-.94,4.9-1.84,7.33-2.81,9.24-3.68,17.41-8.92,24.41-16.08,10.68-10.93,12.16-24.33,12.15-38.8-.01-24.03-10.27-42.31-30.79-53.43-39.38-21.33-79.88-21.2-119.71-1.1-20.33,10.26-33.01,27.57-38.23,49.96-.84,3.6-1.12,7.34-1.7,11.34h59.5c3.36-6.93,5.5-13.78,9.54-19.22,10.58-14.24,37.48-13.25,48.03-4.81,2.98,2.39,5.81,5.84,7.03,9.38,3.27,9.47,3.11,19.36.46,28.99-.84,3.05-2.92,6.02-5.11,8.4-5.99,6.46-14,8.9-22.46,9.48-7.96.54-15.98.46-23.97.36-3.74-.05-5.36.9-5.22,5.05.3,9.15.05,18.32.12,27.49.03,3.61.3,7.23.47,11.28,5.39,0,10.37-.22,15.32.05,7.63.42,15.34.58,22.83,1.91,19.86,3.53,29,14.86,28.98,35,0,3.49-.13,7-.42,10.48-1.1,12.89-9.15,23.3-21.75,26.23-7.34,1.71-15.2,2.47-22.69,1.92-17.19-1.26-27.53-10.36-31.77-26.91-.87-3.4-2.65-3.55-5.34-3.54-16.99.06-33.99.02-50.98.04-1.44,0-2.88.19-4.74.32.15,2.55.06,4.72.43,6.8,3.78,21.27,13.8,38.83,31.64,51.33,18.05,12.64,38.69,17.24,60.34,18.3,25.73,1.26,50.59-1.88,73.35-14.95,18.94-10.88,32.42-26.24,35.92-48.38,1.39-8.79.62-17.93.74-26.92.23-17.32-7.44-30.71-20.8-41.17-9.76-7.64-21.11-11.87-32.92-15.98Z"/>
    <path class="cls-6" d="M102.85,473.98c19,.02,38,.05,56.99.05,140.33,0,280.66,0,420.98,0h6.69c.46-7.43,1.22-14.34,1.23-21.25.01-10.97-.67-21.94-.69-32.91-.02-9.14.72-18.27.73-27.41.06-93.33.04-186.66.04-279.99,0-2.5.08-5,.12-7.5,13.33.05,26.66.11,39.98.16q6.59.02,6.59,6.51c0,116.14,0,232.27,0,348.41,0,69.15,0,138.3,0,207.45,0,1.98,0,3.95,0,6.45-2.1.1-3.85.25-5.6.25-179.45.01-358.91.01-538.36,0-20.59,0-35.5-14.98-35.5-35.66,0-43.16,0-86.31-.01-129.47,0-2-.12-3.99-.18-5.99,1.54-1.23,2.95-2.66,4.62-3.67,14.09-8.52,28.23-16.97,42.35-25.44ZM219.66,619.81v-61.72c1.55,1.44,2.13,2.95,2.54,4.5,4.74,17.68,9.52,35.34,14.11,53.06.84,3.23,2.04,4.8,5.7,4.51,4.64-.37,9.34-.35,13.99,0,3.58.26,4.92-1.12,5.75-4.45,3.97-15.99,8.18-31.92,12.32-47.87.71-2.72,1.51-5.41,2.26-8.11l1.26.18v59.85h23.1v-98.97c-8.62,0-16.92.16-25.21-.08-3.42-.1-4.9.85-5.79,4.35-5.12,20.18-10.52,40.28-15.85,60.4-1.13,4.26-2.35,8.49-3.53,12.73-1.55-1.67-2.1-3.32-2.52-4.99-5.68-22.42-11.32-44.86-17.02-67.27-.58-2.29-.61-5.05-4.31-4.99-9.1.14-18.21.04-27.51.04v98.84h20.73ZM404.51,620.06c.04-.86.21-1.39.08-1.82-9.52-31.54-19.02-63.09-28.73-94.58-.39-1.27-2.76-2.7-4.26-2.75-8.15-.27-16.33.07-24.48-.22-3.68-.13-5.17,1.09-6.15,4.62-7.62,27.24-15.45,54.43-23.21,81.63-1.2,4.21-2.36,8.44-3.67,13.12,7.57,0,14.39.18,21.19-.15,1.36-.07,3.35-1.82,3.81-3.21,1.56-4.73,2.69-9.62,3.73-14.51.57-2.71,1.69-4,4.65-3.94,7.66.15,15.33.16,22.98,0,2.96-.06,4.08,1.28,4.72,3.93,1.17,4.85,2.46,9.7,4.06,14.42.46,1.37,2.13,3.25,3.32,3.3,7.3.31,14.61.15,21.97.15ZM412.68,619.98c8.81,0,16.75.15,24.67-.15,1.33-.05,3.02-1.78,3.8-3.15,2.72-4.77,5.09-9.74,7.63-14.61,3.18-6.11,6.4-12.21,10.06-19.17,1.62,2.8,2.75,4.58,3.72,6.46,4.66,9.03,9.21,18.12,13.96,27.09.76,1.43,2.33,3.4,3.59,3.44,8.22.31,16.45.16,25.64.16-1.51-2.81-2.46-4.69-3.51-6.51-8.46-14.73-16.85-29.5-25.46-44.14-1.67-2.83-1.73-4.88.08-7.66,7.71-11.87,15.19-23.89,22.72-35.87.9-1.42,1.65-2.93,2.86-5.09-3.07,0-5.06-.03-7.04,0-5.98.1-13.27-1.84-17.6.89-4.74,2.99-6.84,10.25-9.95,15.74-2.68,4.72-5.16,9.56-8.13,15.1-1.38-2.33-2.25-3.7-3.02-5.13-4.18-7.77-8.27-15.59-12.55-23.31-.72-1.3-2.17-3.08-3.33-3.12-7.91-.28-15.84-.14-24.81-.14,1.81,3.16,3.06,5.45,4.39,7.68,6.84,11.43,13.56,22.95,20.65,34.23,2.3,3.66,2.19,6.46-.13,9.98-4.03,6.11-7.65,12.5-11.4,18.8-5.5,9.25-10.96,18.53-16.85,28.49Z"/>
    <path class="cls-4" d="M102.85,473.98c-14.12,8.47-28.26,16.92-42.35,25.44-1.67,1.01-3.09,2.44-4.62,3.67-16.74,9.93-33.47,19.87-50.22,29.8-1.41.83-2.85,1.6-5.13,2.86-.21-2.25-.47-3.77-.47-5.3C.04,375.84.05,221.22,0,66.61c0-3.07.62-5.19,3.55-6.95C34.83,40.94,66.01,22.06,97.24,3.27c1.68-1.01,3.6-1.64,5.41-2.44.08,1.49.24,2.99.24,4.48.01,155.39,0,310.78,0,466.18,0,.83-.03,1.67-.05,2.5Z"/>
    <path class="cls-3" d="M389.3,226.79c11.81,4.1,23.16,8.33,32.92,15.98,13.36,10.46,21.02,23.85,20.8,41.17-.12,8.98.65,18.13-.74,26.92-3.5,22.14-16.99,37.5-35.92,48.38-22.75,13.07-47.62,16.22-73.35,14.95-21.65-1.06-42.29-5.66-60.34-18.3-17.85-12.5-27.86-30.06-31.64-51.33-.37-2.09-.28-4.26-.43-6.8,1.86-.13,3.3-.32,4.74-.32,16.99-.02,33.99.02,50.98-.04,2.69,0,4.47.14,5.34,3.54,4.24,16.55,14.58,25.65,31.77,26.91,7.5.55,15.36-.21,22.69-1.92,12.6-2.94,20.65-13.34,21.75-26.23.3-3.48.42-6.99.42-10.48.02-20.14-9.13-31.47-28.98-35-7.49-1.33-15.21-1.49-22.83-1.91-4.95-.27-9.92-.05-15.32-.05-.18-4.05-.45-7.67-.47-11.28-.07-9.16.19-18.33-.12-27.49-.14-4.15,1.49-5.1,5.22-5.05,7.99.1,16.01.18,23.97-.36,8.46-.58,16.48-3.02,22.46-9.48,2.2-2.37,4.27-5.34,5.11-8.4,2.65-9.63,2.81-19.52-.46-28.99-1.22-3.54-4.05-7-7.03-9.38-10.55-8.44-37.45-9.43-48.03,4.81-4.04,5.44-6.18,12.29-9.54,19.22h-59.5c.58-4,.86-7.73,1.7-11.34,5.22-22.38,17.9-39.7,38.23-49.96,39.83-20.1,80.33-20.23,119.71,1.1,20.52,11.12,30.78,29.4,30.79,53.43,0,14.47-1.47,27.86-12.15,38.8-7,7.16-15.17,12.4-24.41,16.08-2.43.97-4.89,1.88-7.33,2.81Z"/>
    <path class="cls-5" d="M219.66,619.81h-20.73v-98.84c9.3,0,18.41.09,27.51-.04,3.7-.06,3.73,2.7,4.31,4.99,5.7,22.42,11.34,44.85,17.02,67.27.42,1.68.98,3.32,2.52,4.99,1.18-4.24,2.41-8.47,3.53-12.73,5.33-20.12,10.74-40.22,15.85-60.4.89-3.5,2.37-4.45,5.79-4.35,8.29.24,16.59.08,25.21.08v98.97h-23.1v-59.85l-1.26-.18c-.76,2.7-1.56,5.39-2.26,8.11-4.14,15.95-8.35,31.88-12.32,47.87-.83,3.33-2.17,4.71-5.75,4.45-4.64-.34-9.35-.36-13.99,0-3.66.29-4.86-1.28-5.7-4.51-4.59-17.72-9.37-35.38-14.11-53.06-.42-1.55-.99-3.06-2.54-4.5v61.72Z"/>
    <path class="cls-7" d="M404.51,620.06c-7.36,0-14.67.15-21.97-.15-1.18-.05-2.85-1.93-3.32-3.3-1.6-4.72-2.88-9.57-4.06-14.42-.64-2.64-1.76-3.99-4.72-3.93-7.66.16-15.33.16-22.98,0-2.96-.06-4.08,1.23-4.65,3.94-1.03,4.88-2.17,9.77-3.73,14.51-.46,1.39-2.45,3.14-3.81,3.21-6.8.33-13.62.15-21.19.15,1.31-4.68,2.47-8.91,3.67-13.12,7.76-27.2,15.59-54.39,23.21-81.63.99-3.53,2.48-4.75,6.15-4.62,8.15.29,16.33-.05,24.48.22,1.49.05,3.86,1.47,4.26,2.75,9.71,31.48,19.21,63.03,28.73,94.58.13.44-.03.96-.08,1.82ZM369.27,579.85c-3.49-14.24-6.86-28.05-10.24-41.85-.29.03-.57.06-.86.1-3.22,13.8-6.44,27.59-9.75,41.76h20.85Z"/>
    <path class="cls-1" d="M412.68,619.98c5.89-9.96,11.35-19.24,16.85-28.49,3.75-6.3,7.37-12.68,11.4-18.8,2.32-3.52,2.43-6.32.13-9.98-7.09-11.28-13.81-22.79-20.65-34.23-1.34-2.23-2.59-4.52-4.39-7.68,8.97,0,16.9-.13,24.81.14,1.16.04,2.61,1.82,3.33,3.12,4.28,7.72,8.37,15.54,12.55,23.31.77,1.43,1.64,2.8,3.02,5.13,2.98-5.54,5.46-10.38,8.13-15.1,3.11-5.48,5.2-12.75,9.95-15.74,4.34-2.73,11.62-.79,17.6-.89,1.98-.03,3.97,0,7.04,0-1.21,2.16-1.96,3.67-2.86,5.09-7.54,11.98-15.02,24-22.72,35.87-1.81,2.78-1.74,4.83-.08,7.66,8.62,14.64,17.01,29.41,25.46,44.14,1.05,1.83,2,3.71,3.51,6.51-9.19,0-17.43.15-25.64-.16-1.26-.05-2.83-2.01-3.59-3.44-4.76-8.98-9.31-18.06-13.96-27.09-.97-1.87-2.1-3.66-3.72-6.46-3.66,6.96-6.88,13.06-10.06,19.17-2.54,4.87-4.91,9.84-7.63,14.61-.78,1.37-2.47,3.1-3.8,3.15-7.92.3-15.85.15-24.67.15Z"/>
    <path class="cls-2" d="M369.27,579.85h-20.85c3.31-14.16,6.53-27.96,9.75-41.76.29-.03.57-.06.86-.1,3.38,13.8,6.76,27.61,10.24,41.85Z"/>
  </g>
</svg>