<?xml version="1.0" encoding="UTF-8"?>
<svg id="Layer_2" data-name="Layer 2" xmlns="http://www.w3.org/2000/svg" width="141.21" height="131.69" viewBox="0 0 141.21 131.69">
  <defs>
    <style>
      .cls-1 {
        fill: #770829;
      }

      .cls-1, .cls-2, .cls-3, .cls-4 {
        stroke-width: 0px;
      }

      .cls-2 {
        fill: #e85984;
      }

      .cls-3 {
        fill: #fff;
      }

      .cls-4 {
        fill: #e51050;
      }
    </style>
  </defs>
  <g id="Layer_1-2" data-name="Layer 1">
    <g id="_e85984ff" data-name="#e85984ff">
      <path class="cls-2" d="M0,14.97C7.68,9.98,15.37,5.01,23.03,0c-.01,35.43.03,70.87-.02,106.31-3.01,2-6.07,3.93-9.08,5.94-3.88,2.41-7.7,4.91-11.49,7.45-.75.52-1.55.95-2.39,1.3-.04-35.34.05-70.69-.05-106.03Z"/>
    </g>
    <g id="_e51050ff" data-name="#e51050ff">
      <path class="cls-4" d="M23.03,0c33.88,0,67.76,0,101.64,0,3.54.05,6.94,2.83,7.23,6.44.14,6.35-.09,12.71.11,19.06.08,24.3.01,48.6.03,72.9-.05,2.66.13,5.32-.09,7.98-11.35.11-22.7.01-34.05.05-23.62,0-47.23,0-70.85,0-1.35.02-2.7.03-4.04-.12.04-35.43,0-70.87.02-106.31M69.57,22.1c-2.25,6.51-4.05,13.16-6.14,19.72-3.91,12.79-7.82,25.58-11.73,38.38-.36,1.02-.67,2.06-.84,3.13,3.7.06,7.41.09,11.11-.01,1.42-4.92,2.86-9.83,4.23-14.77.14-.44.31-.86.48-1.27,7.02.02,14.04-.09,21.05.06,1.69,5.34,3.29,10.71,5.08,16.02,3.78.02,7.57.05,11.35-.02-2.24-7.52-4.8-14.95-7.13-22.45-4.21-12.91-8.26-25.87-12.49-38.77-4.98-.12-9.98-.1-14.97-.01Z"/>
      <path class="cls-4" d="M76.91,30.06c.72,1.73,1.01,3.6,1.59,5.37,2.14,7.62,4.4,15.21,6.46,22.85-5.26.07-10.53.08-15.79,0,2.43-9.45,5.26-18.79,7.74-28.22Z"/>
    </g>
    <g id="_ffffffff" data-name="#ffffffff">
      <path class="cls-3" d="M69.57,22.1c4.98-.08,9.98-.11,14.97.01,4.23,12.9,8.29,25.86,12.49,38.77,2.33,7.5,4.89,14.92,7.13,22.45-3.78.07-7.57.04-11.35.02-1.79-5.31-3.39-10.68-5.08-16.02-7.02-.15-14.04-.04-21.05-.06-.17.42-.35.84-.48,1.27-1.37,4.93-2.81,9.85-4.23,14.77-3.7.1-7.41.07-11.11.01.18-1.07.48-2.11.84-3.13,3.91-12.79,7.82-25.58,11.73-38.38,2.09-6.56,3.89-13.21,6.14-19.72M76.91,30.06c-2.48,9.44-5.32,18.78-7.74,28.22,5.26.08,10.53.07,15.79,0-2.05-7.65-4.32-15.24-6.46-22.85-.58-1.77-.87-3.64-1.59-5.37Z"/>
    </g>
    <g id="_770829ff" data-name="#770829ff">
      <path class="cls-1" d="M132.01,25.5c3.02-.37,6.09-.18,9.13-.13.15,8,.02,16,.06,24,0,25.52,0,51.05,0,76.57-.02,1.9.07,3.8-.06,5.7-39.37.06-78.74,0-118.11.03-2.34,0-4.9-.22-6.72-1.86-1.36-1.28-2.42-3.04-2.37-4.96-.01-4.21,0-8.41,0-12.62,3.01-2.01,6.07-3.93,9.08-5.94,1.34.15,2.69.14,4.04.12,23.62,0,47.23,0,70.85,0,11.35-.03,22.7.07,34.05-.05.21-2.66.04-5.32.09-7.98-.02-24.3.04-48.6-.03-72.9Z"/>
    </g>
  </g>
</svg>