<?xml version="1.0" encoding="UTF-8"?>
<svg id="Layer_2" data-name="Layer 2" xmlns="http://www.w3.org/2000/svg" width="64.1" height="82.5" viewBox="0 0 64.1 82.5">
  <defs>
    <style>
      .cls-1 {
        fill: #2ba977;
        fill-rule: evenodd;
        stroke-width: 0px;
      }
    </style>
  </defs>
  <g id="svg2948">
    <g id="layer1">
      <path id="path2838" class="cls-1" d="M13.6,42.28c-.04,8.2,5.97,13.08,15.56,10.86v-21.73c-9.71-2.96-15.52,3.03-15.56,10.86M29.46,0h13.21v62.53c-12.66,2.07-24.79,3.38-33.47-1.47C-1.97,54.82-2.87,34.97,5.97,26.13c4.48-4.48,13.51-7.64,23.19-5.58V.88c-.03-.42-.05-.83.29-.88"/>
      <path id="path2840" class="cls-1" d="M64.1,13.8h-13.21V0h13.21s0,13.8,0,13.8Z"/>
      <path id="path2860" class="cls-1" d="M64.1,20.79c-.01,9.73-.01,16.72-.01,28.54-.56,11.61-.43,20.86-4.68,26.42-.84,1.1-2.62,2.69-4.11,3.82-1.25.94-3.64,2.85-4.99,2.94-1.36.08-4.87-1.89-6.46-2.64-2.08-.98-4.01-2.29-6.17-2.94,5.03-3.11,9.8-5.45,11.74-11.74,1.69-5.47,1.47-13.41,1.47-21.14s.03-16.51.03-23.25h13.18Z"/>
    </g>
  </g>
</svg>