<?xml version="1.0" encoding="UTF-8"?>
<svg id="Layer_2" data-name="Layer 2" xmlns="http://www.w3.org/2000/svg" width="300" height="300" viewBox="0 0 300 300">
  <defs>
    <style>
      .cls-1 {
        fill: #579441;
        stroke-width: 0px;
      }
    </style>
  </defs>
  <g id="Layer_1-2" data-name="Layer 1">
    <path class="cls-1" d="M300,300H0V0h300v300ZM214.08,78.21c-3.7.38-2.86-2.45-2.96-4.39-.82-14.8-1.44-29.62-2.42-44.41-.19-2.88-1.65-5.68-2.53-8.51l-.69.45c1.17,18.02,2.33,36.04,3.5,54.15-4.93,1.15-10.91-1.59-11.28,6.28-.5-.16-.99-.31-1.49-.47-.57-3.36-1.15-6.73-1.72-10.09-.83.09-1.66.18-2.49.27.11,2.33.22,4.66.35,7.27-.91-.64-1.51-1.31-2.25-1.54-1.28-.4-2.64-.53-3.97-.77.11,1.34.12,2.7.36,4.02.14.8.61,1.54.94,2.3,1.86,4.44,2.32,7.99-3.51,10.25-3.08,1.2-5.61,4.13-8.03,6.62-5.1,5.25-9.79,10.91-15.05,15.99-1.68,1.63-4.53,2.53-6.95,2.82-9.39,1.09-18.8,1.99-28.23,2.6-12.43.81-24.9,1.09-37.32,2.04-3.26.25-7,1.36-9.47,3.36-7.19,5.82-13.5,12.77-20.82,18.4-8.48,6.52-17.09,13.68-29.25,10.77-.79-.19-1.78.48-2.67.75.05.63.11,1.26.16,1.89,6.05,0,12.1.09,18.15-.07,1.41-.04,3.05-.62,4.17-1.49,9.81-7.71,19.49-15.57,29.28-23.3,1.92-1.51,3.98-3.43,6.22-3.84,5.19-.95,10.51-1.31,15.79-1.52,11.98-.48,23.97-.75,35.96-1.05,3.8-.1,7.61-.01,11.42-.01.18.48.36.96.54,1.44-1.02,1.12-2.18,2.15-3.04,3.38-5.4,7.71-10.77,15.44-16.09,23.21-2.27,3.32-4.49,6.68-6.56,10.13-1.32,2.19-2.33,4.56-3.66,7.2,12.16,2.42,21.53.11,30.42-6.63,8.62-6.54,18.11-11.94,27.22-17.83.35.33.7.66,1.05.99-1.49,1.7-2.78,3.63-4.5,5.03-3.08,2.51-6.68,4.42-9.61,7.08-7.28,6.6-14.11,13.7-21.51,20.16-4.2,3.67-9.22,6.37-13.73,9.7-2.21,1.63-4.85,3.32-6.01,5.63-9.39,18.56-18.46,37.29-27.7,55.92-1.1,2.21-2.64,4.21-3.99,6.3-5.94,9.17-11.89,18.33-17.79,27.53-.18.27.14.86.43,2.32,2.09-1.45,4.32-2.22,5.27-3.78,5.06-8.31,11.51-15.71,15.94-24.42,9.19-18.11,18.41-36.2,27.48-54.36,1.28-2.56,2.74-3.98,5.62-4.87,2.38-.73,4.48-2.96,6.23-4.94,1.65-1.86,2.27-4.74,4.08-6.33,3.73-3.29,7.94-6.05,11.98-8.98,7.13-5.17,14.63-9.89,21.33-15.56,9.28-7.86,15.9-17.83,20.67-29.07.6-1.41,3.1-3.2,4.23-2.91,1.38.36,3.04,2.66,3.16,4.24.21,2.74-.1,5.81-1.2,8.3-2.84,6.42-1.08,11.82,3.09,16.64,9.03,10.44,18.23,20.72,27.49,30.95,1.13,1.25,3,1.85,4.53,2.74.4-.38.8-.76,1.2-1.14-.67-1.36-1.09-2.94-2.06-4.04-7-7.96-14.11-15.83-21.19-23.71-1.78-1.98-3.72-3.84-5.37-5.92-.77-.96-1.4-2.3-1.47-3.51-.69-10.96-1.17-21.94-1.84-32.9-.71-11.5,3.66-15.2,15.03-12.38,3.22.8,6.32,2.09,9.5,3.06,2.54.78,5.1,1.81,7.7,1.97,1.73.11,4.38-.6,5.16-1.85,2.19-3.52,4.86-4.71,8.8-3.93.72.14,1.63-.63,3.28-1.33-1.85-1.58-3.15-2.68-3.64-3.1-3.03.71-5.1,1.31-7.22,1.67-2.12.36-4.35.2-6.41.75-7.77,2.07-14.95.06-21.84-3.23-1.22-.58-2.22-2.96-2.17-4.47.04-1.15,1.69-2.66,2.98-3.28,5.9-2.81,7.06-5.95,4.4-11.97-1.12-2.53-1.72-5.28-2.56-7.94,11.85-10.72,25.48-18.61,40.05-25.31-3.72.1-7.07,1-10.23,2.33-11.92,5.02-23.1,11.12-30.62,22.23Z"/>
  </g>
</svg>