<?xml version="1.0" encoding="UTF-8"?>
<svg id="Layer_2" data-name="Layer 2" xmlns="http://www.w3.org/2000/svg" width="214.09" height="195.24" viewBox="0 0 214.09 195.24">
  <defs>
    <style>
      .cls-1 {
        fill: #186bff;
      }

      .cls-1, .cls-2, .cls-3, .cls-4 {
        stroke-width: 0px;
      }

      .cls-2 {
        fill: #679ae7;
      }

      .cls-3 {
        fill: #fff;
      }

      .cls-4 {
        fill: #0c3d91;
      }
    </style>
  </defs>
  <g id="Layer_1-2" data-name="Layer 1">
    <path class="cls-2" d="M2.74,19.24C13.46,12.88,24.05,6.29,34.81.03c.1,53.21,0,106.42,0,159.64-5.26,3.2-10.56,6.33-15.81,9.55-6.34,3.76-12.6,7.68-19,11.36V21.31c.78-.85,1.71-1.55,2.74-2.07Z"/>
    <path class="cls-1" d="M34.81.04C85.4-.01,136-.01,186.6.04c6-.3,11.75,5,11.72,11v148.61H34.87c-.06-53.19.04-106.4-.06-159.61ZM84.67,124.26c7.44.07,14.89,0,22.34,0v-31.9c3.13,0,6.26,0,9.39-.05,3.34,6.37,6.4,12.9,9.64,19.33,2.44,5.58,6,11.41,12.15,13.42,5.43,1.71,11.29,1.44,16.54-.77v-13.31c-1.83-.23-3.81-.2-5.41-1.25-1.3-.9-2.34-2.15-3-3.59-3.26-6.18-6.53-12.35-9.82-18.51,5-2.68,9.81-6.44,12.2-11.77,2.41-5,1.71-10.77,1.77-16.18.06-6.02-2.42-11.79-6.84-15.88-6.28-5.69-15-7.81-23.25-8.09h-35.65c-.09,29.51-.02,59.04-.06,88.55h0Z"/>
    <path class="cls-1" d="M107.01,51.06c4.45.17,9-.39,13.36.36,3.66.73,7,3.53,7.56,7.33.25,3.15.31,6.31.18,9.47-.09,3.93-2.63,7.39-6.35,8.67-4.75,1.55-9.83.67-14.74.91-.01-8.91-.02-17.82,0-26.74Z"/>
    <path class="cls-3" d="M84.67,124.26V35.71h35.65c8.28.29,17,2.41,23.25,8.09,4.42,4.09,6.9,9.86,6.84,15.88-.05,5.41.64,11.14-1.77,16.18-2.39,5.33-7.16,9.09-12.2,11.77,3.28,6.16,6.55,12.33,9.82,18.51.66,1.44,1.7,2.69,3,3.59,1.6,1,3.59,1,5.41,1.25v13.31c-5.25,2.21-11.11,2.48-16.54.77-6.1-2-9.7-7.85-12.15-13.42-3.24-6.43-6.3-13-9.64-19.33-3.13.1-6.26,0-9.39.05v31.9c-7.39.01-14.86.07-22.28,0ZM107.01,51.06c0,8.91,0,17.83,0,26.74,4.9-.23,10,.64,14.74-.91,3.72-1.28,6.26-4.74,6.35-8.67.13-3.16.07-6.32-.18-9.47-.59-3.8-3.9-6.6-7.56-7.33-4.39-.8-8.9-.18-13.35-.36h0Z"/>
    <path class="cls-4" d="M198.32,35.88h15.77v159.36H29.75c-3.67-.38-6.98-2.39-9-5.48-1.27-1.98-1.87-4.31-1.73-6.66v-13.87c5.25-3.21,10.55-6.35,15.81-9.55,54.49,0,108.97,0,163.45,0,.05-41.27.07-82.53.04-123.8Z"/>
  </g>
</svg>