<?xml version="1.0" encoding="UTF-8"?>
<svg id="Layer_2" data-name="Layer 2" xmlns="http://www.w3.org/2000/svg" width="512" height="512" viewBox="0 0 512 512">
  <defs>
    <style>
      .cls-1 {
        fill: #fff;
        fill-rule: evenodd;
      }

      .cls-1, .cls-2 {
        stroke-width: 0px;
      }

      .cls-2 {
        fill: #3178c6;
      }
    </style>
  </defs>
  <g id="Layer_1-2" data-name="Layer 1">
    <rect class="cls-2" width="512" height="512" rx="50" ry="50"/>
    <path class="cls-1" d="M316.94,407.42v50.06c8.14,4.17,17.76,7.3,28.88,9.39s22.82,3.13,35.14,3.13,23.4-1.15,34.2-3.44c10.8-2.29,20.27-6.08,28.41-11.34,8.14-5.27,14.58-12.15,19.33-20.65s7.12-19.01,7.12-31.52c0-9.07-1.36-17.03-4.07-23.86s-6.62-12.91-11.74-18.23c-5.11-5.32-11.24-10.09-18.39-14.32s-15.21-8.21-24.18-11.97c-6.57-2.71-12.47-5.35-17.68-7.9-5.22-2.56-9.65-5.16-13.3-7.82-3.65-2.66-6.47-5.48-8.45-8.45-1.98-2.97-2.97-6.34-2.97-10.09,0-3.44.89-6.54,2.66-9.31s4.28-5.14,7.51-7.12c3.23-1.98,7.2-3.52,11.89-4.61,4.7-1.1,9.91-1.64,15.65-1.64,4.17,0,8.58.31,13.22.94,4.64.63,9.31,1.59,14.01,2.89,4.7,1.3,9.26,2.95,13.69,4.93,4.43,1.98,8.53,4.28,12.29,6.88v-46.78c-7.62-2.92-15.94-5.08-24.96-6.49s-19.38-2.11-31.07-2.11-23.16,1.28-33.8,3.83-20.01,6.54-28.09,11.97c-8.09,5.42-14.48,12.33-19.17,20.73-4.7,8.39-7.04,18.43-7.04,30.11,0,14.91,4.3,27.64,12.91,38.17,8.61,10.53,21.67,19.45,39.2,26.75,6.89,2.82,13.3,5.58,19.25,8.29s11.09,5.53,15.42,8.45c4.33,2.92,7.75,6.1,10.25,9.54,2.5,3.44,3.76,7.35,3.76,11.73,0,3.23-.78,6.23-2.35,8.99s-3.94,5.16-7.12,7.2-7.15,3.62-11.89,4.77c-4.75,1.15-10.3,1.72-16.67,1.72-10.85,0-21.6-1.9-32.24-5.71-10.64-3.81-20.5-9.52-29.58-17.13h0ZM232.78,284.08h64.22v-41.08H118v41.08h63.91v182.92h50.87v-182.92Z"/>
  </g>
</svg>