<?xml version="1.0" encoding="UTF-8"?>
<svg id="Layer_2" data-name="Layer 2" xmlns="http://www.w3.org/2000/svg" width="600.26" height="839.15" viewBox="0 0 600.26 839.15">
  <defs>
    <style>
      .cls-1 {
        stroke-width: 0px;
      }
    </style>
  </defs>
  <g id="Layer_1-2" data-name="Layer 1">
    <path class="cls-1" d="M600.23,419.46c0,114.65.07,229.31-.04,343.96-.04,43.21-40.97,75.58-95.81,75.64-136.59.13-273.18.1-409.76,0-52.86-.04-94.37-32.83-94.48-74.73-.21-74.66-.09-149.32-.09-223.97,0-126.65.01-253.3.01-379.95,0-28.33-.11-56.66,0-84.99C.21,32.69,41.58.05,95.66.03c135.74-.04,271.49-.05,407.23,0,56.79.02,97.36,32.17,97.37,76.97.01,114.15,0,228.31,0,342.46h-.03ZM64.01,670.66h472.02V119.27h-9.36c-151.37,0-302.74,0-454.11,0q-8.52,0-8.53,6.75c0,179.48-.01,358.97-.02,538.45,0,1.96,0,3.92,0,6.19ZM300.06,797.13c31.28.03,56.56-19.85,56.41-44.34-.15-24.39-25.14-44.1-56.06-44.22-31.13-.12-56.32,19.78-56.27,44.46.05,24.55,24.8,44.07,55.93,44.1Z"/>
  </g>
</svg>