<?xml version="1.0" encoding="UTF-8"?>
<svg id="Layer_2" data-name="Layer 2" xmlns="http://www.w3.org/2000/svg" width="431.89" height="445.39" viewBox="0 0 431.89 445.39">
  <defs>
    <style>
      .cls-1 {
        stroke-linejoin: round;
      }

      .cls-1, .cls-2 {
        fill: none;
        stroke-linecap: round;
        stroke-width: 12.47px;
      }

      .cls-1, .cls-2, .cls-3, .cls-4 {
        stroke: #fff;
      }

      .cls-2 {
        stroke-linejoin: bevel;
      }

      .cls-3 {
        stroke-width: 2.08px;
      }

      .cls-3, .cls-4 {
        fill: #fff;
      }

      .cls-4 {
        stroke-width: 4.16px;
      }

      .cls-5 {
        stroke: #000;
        stroke-width: 37.4px;
      }

      .cls-6 {
        fill: #336791;
        stroke-width: 0px;
      }
    </style>
  </defs>
  <g id="Layer_1-2" data-name="Layer 1">
    <g id="Layer_3">
      <path class="cls-5" d="M322.7,324.23c2.83-23.6,1.98-27.06,19.56-23.24l4.46.39c13.52.61,31.2-2.17,41.59-7,22.36-10.38,35.62-27.7,13.57-23.15-50.3,10.38-53.76-6.65-53.76-6.65,53.11-78.8,75.31-178.84,56.15-203.32C352.01-5.53,261.53,26.05,260.02,26.87l-.48.09c-9.94-2.06-21.06-3.29-33.55-3.5-22.76-.37-40.03,5.97-53.13,15.9,0,0-161.41-66.5-153.9,83.63,1.6,31.94,45.78,241.65,98.47,178.31,19.26-23.16,37.87-42.75,37.87-42.75,9.24,6.14,20.31,9.27,31.91,8.15l.9-.77c-.28,2.88-.16,5.69.36,9.02-13.57,15.17-9.58,17.83-36.72,23.42-27.46,5.66-11.33,15.73-.8,18.37,12.77,3.19,42.3,7.72,62.27-20.22l-.79,3.19c5.32,4.26,4.96,30.62,5.72,49.45.76,18.83,2.02,36.41,5.86,46.77,3.84,10.36,8.37,37.05,44.04,29.41,29.81-6.39,52.6-15.58,54.68-101.11"/>
      <path class="cls-6" d="M401.89,271.23c-50.3,10.38-53.76-6.65-53.76-6.65,53.11-78.81,75.31-178.84,56.15-203.33C352.02-5.54,261.53,26.05,260.02,26.87l-.49.09c-9.94-2.06-21.06-3.29-33.56-3.5-22.76-.37-40.03,5.97-53.13,15.9,0,0-161.41-66.5-153.9,83.63,1.6,31.94,45.78,241.66,98.47,178.31,19.26-23.16,37.87-42.75,37.87-42.75,9.24,6.14,20.31,9.27,31.91,8.15l.9-.77c-.28,2.88-.15,5.69.36,9.02-13.57,15.17-9.59,17.83-36.72,23.42-27.46,5.66-11.33,15.73-.8,18.37,12.77,3.19,42.31,7.72,62.27-20.22l-.8,3.19c5.32,4.26,9.05,27.71,8.43,48.97-.63,21.26-1.04,35.85,3.15,47.25,4.19,11.4,8.37,37.05,44.04,29.41,29.81-6.39,45.26-22.94,47.4-50.55,1.52-19.63,4.98-16.73,5.19-34.28l2.77-8.31c3.19-26.61.51-35.2,18.87-31.2l4.46.39c13.52.61,31.21-2.17,41.59-7,22.36-10.38,35.62-27.7,13.57-23.15h0Z"/>
      <path class="cls-1" d="M215.36,286.48c-1.38,49.52.35,99.38,5.19,111.49,4.85,12.12,15.22,35.69,50.9,28.05,29.81-6.39,40.65-18.76,45.36-46.05,3.47-20.08,10.15-75.85,11.01-87.28"/>
      <path class="cls-1" d="M172.6,38.26S11.08-27.76,18.59,122.37c1.6,31.94,45.78,241.66,98.47,178.32,19.26-23.17,36.67-41.33,36.67-41.33"/>
      <path class="cls-1" d="M259.85,26.21c-5.59,1.75,89.85-34.89,144.09,34.42,19.16,24.48-3.04,124.52-56.15,203.33"/>
      <path class="cls-2" d="M347.78,263.95s3.46,17.04,53.76,6.65c22.04-4.55,8.78,12.77-13.58,23.15-18.35,8.51-59.47,10.7-60.15-1.07-1.73-30.36,21.65-21.13,19.96-28.74-1.52-6.85-11.98-13.57-18.89-30.34-6.04-14.63-82.8-126.85,21.29-110.18,3.81-.79-27.15-99-124.55-100.6-97.39-1.6-94.19,119.76-94.19,119.76"/>
      <path class="cls-1" d="M188.1,274.33c-13.58,15.17-9.58,17.83-36.72,23.42-27.46,5.66-11.33,15.73-.8,18.36,12.77,3.2,42.31,7.72,62.27-20.23,6.08-8.51-.04-22.09-8.38-25.55-4.03-1.67-9.43-3.77-16.36,3.99h0Z"/>
      <path class="cls-1" d="M187.21,274.07c-1.37-8.92,2.93-19.53,7.54-31.94,6.92-18.63,22.89-37.26,10.12-96.34-9.52-44.03-73.4-9.16-73.44-3.19-.04,5.97,2.89,30.26-1.07,58.55-5.16,36.91,23.49,68.13,56.48,64.94"/>
      <path class="cls-4" d="M172.01,141.7c-.29,2.04,3.73,7.48,8.98,8.21,5.23.73,9.71-3.52,10-5.56.28-2.04-3.73-4.29-8.98-5.01-5.24-.73-9.72.33-10,2.37h0Z"/>
      <path class="cls-3" d="M331.44,137.54c.28,2.04-3.73,7.48-8.98,8.21-5.24.73-9.72-3.52-10.01-5.56-.28-2.04,3.74-4.29,8.98-5.01s9.72.33,10,2.37h0Z"/>
      <path class="cls-1" d="M350.17,123.43c.86,15.99-3.45,26.89-3.99,43.91-.8,24.75,11.8,53.07-7.19,81.43"/>
    </g>
  </g>
</svg>