<?xml version="1.0" encoding="UTF-8"?><svg id="Layer_2" xmlns="http://www.w3.org/2000/svg" width="161.66" height="204.65" viewBox="0 0 161.66 204.65"><defs><style>.cls-1{fill:#dee66d;stroke-width:0px;}</style></defs><g id="Layer_2-2"><g id="Layer_2-2-2"><g id="Layer_2-2-3"><g id="Capa_1-2"><path class="cls-1" d="M80.95,148.23c0,1.98-1.55,3.56-3.49,3.56H29.45c-12.38,0-22.46,10.27-22.46,22.87s10.08,22.87,22.46,22.87h48.01c1.94,0,3.49,1.57,3.49,3.56s-1.55,3.56-3.49,3.56H29.45c-16.21,0-29.45-13.47-29.45-29.99s13.23-29.99,29.44-29.99h48.01c1.94,0,3.49,1.57,3.49,3.56h.01Z"/><path class="cls-1" d="M64.87,148.18c-.03-2.39,1.8-4.3,4.13-4.34l57.7-.86c14.88-.22,26.81-12.75,26.56-27.89-.23-15.15-12.55-27.31-27.42-27.08l-57.7.86c-2.34.03-4.23-1.83-4.26-4.21s1.8-4.3,4.13-4.34l57.7-.86c19.49-.3,35.64,15.65,35.95,35.51.31,19.86-15.34,36.28-34.83,36.57l-57.7.86c-2.34.03-4.23-1.83-4.26-4.21h0Z"/><path class="cls-1" d="M40.47,150.82c-22.36,0-40.47-18.51-40.47-41.29s.96-10.34,2.81-15.16c6.17-15.86,20.93-26.06,37.66-26.06,22.36,0,40.47,18.51,40.47,41.29s-18.18,41.22-40.54,41.22h.07ZM40.47,78.1c-12.76,0-24.08,7.82-28.75,19.91-1.44,3.7-2.19,7.61-2.19,11.6,0,17.33,13.85,31.5,30.87,31.5s30.94-14.12,30.94-31.44-13.85-31.5-30.87-31.5v-.07h0Z"/><ellipse class="cls-1" cx="53.59" cy="110.27" rx="8.92" ry="9.08"/><path class="cls-1" d="M111.82,82.51c-22.36,0-40.47-18.51-40.47-41.29s.96-10.34,2.81-15.16C80.33,10.2,95.08,0,111.82,0c22.36,0,40.47,18.51,40.47,41.29s-18.18,41.22-40.54,41.22c0,0,.07,0,.07,0ZM111.82,9.78c-12.76,0-24.08,7.82-28.75,19.91-1.44,3.7-2.19,7.61-2.19,11.6,0,17.33,13.85,31.5,30.87,31.5s30.94-14.12,30.94-31.44-13.85-31.5-30.87-31.5v-.07Z"/><ellipse class="cls-1" cx="120.1" cy="48.03" rx="8.92" ry="9.08"/></g></g></g></g></svg>