<?xml version="1.0" encoding="UTF-8"?><svg id="Layer_2" xmlns="http://www.w3.org/2000/svg" width="300" height="300" viewBox="0 0 300 300"><defs><style>.cls-1{fill:#000;}.cls-1,.cls-2,.cls-3,.cls-4{stroke-width:0px;}.cls-2{fill:#21212b;}.cls-3{fill:#cf3;}.cls-5{opacity:.8;}.cls-4{fill:#23233d;}</style></defs><g id="Layer_2-2"><circle class="cls-1" cx="150" cy="150" r="150"/><circle class="cls-2" cx="149.15" cy="150.57" r="140.62"/><g class="cls-5"><ellipse class="cls-4" cx="40.32" cy="115.78" rx="8.11" ry="7.9" transform="translate(-79.11 143.47) rotate(-83.85)"/><path class="cls-4" d="M58.52,83.31c17.21.61,30.58,15.22,29.9,32.74s-1.07,7.88-2.6,11.5c-5.28,11.98-16.85,19.34-29.76,18.89-12.91-.46-30.58-15.22-29.9-32.74.68-17.51,15.15-31.14,32.36-30.53h0v.14ZM55.4,141.52c12.54.44,23.72-5.71,28.79-15.81,1.57-3.06,2.34-6.31,2.47-9.73.57-14.63-12.46-27.09-29.18-27.68-16.72-.59-30.69,10.91-31.26,25.54-.57,14.63,12.46,27.09,29.18,27.68h0Z"/><ellipse class="cls-4" cx="136.78" cy="116.03" rx="8.11" ry="7.9" transform="translate(6.77 239.6) rotate(-83.85)"/><path class="cls-4" d="M118.59,148.51c-17.21-.61-30.58-15.22-29.9-32.74.68-17.51,1.07-7.88,2.6-11.5,5.28-11.98,16.85-19.34,29.76-18.89,12.91.46,30.58,15.22,29.9,32.74s-15.15,31.14-32.36,30.53h0v-.14ZM121.7,90.29c-12.54-.44-23.72,5.71-28.79,15.81-1.57,3.06-2.34,6.31-2.47,9.73-.57,14.63,12.46,27.09,29.18,27.68,16.72.59,30.69-10.91,31.26-25.54.57-14.63-12.46-27.09-29.18-27.68h0Z"/><ellipse class="cls-4" cx="165.19" cy="116.47" rx="8.11" ry="7.9" transform="translate(31.7 268.25) rotate(-83.85)"/><path class="cls-4" d="M183.38,84c17.21.61,30.58,15.22,29.9,32.74-.68,17.51-1.07,7.88-2.6,11.5-5.28,11.98-16.85,19.34-29.76,18.89s-30.58-15.22-29.9-32.74,15.15-31.14,32.36-30.53h0v.14ZM180.27,142.21c12.54.44,23.72-5.71,28.79-15.81,1.57-3.06,2.34-6.31,2.47-9.73.57-14.63-12.46-27.09-29.18-27.68-16.72-.59-30.69,10.91-31.26,25.54-.57,14.63,12.46,27.09,29.18,27.68h0Z"/><ellipse class="cls-4" cx="105.87" cy="54.47" rx="8.11" ry="7.9" transform="translate(40.37 153.9) rotate(-83.85)"/><path class="cls-4" d="M119.24,86.62c-17.21-.61-30.58-15.22-29.9-32.74s1.07-7.88,2.6-11.5c5.28-11.98,16.85-19.34,29.76-18.89,12.91.46,30.58,15.22,29.9,32.74s-15.15,31.14-32.36,30.53h0v-.14ZM122.36,28.41c-12.54-.44-23.72,5.71-28.79,15.81-1.57,3.06-2.34,6.31-2.47,9.73-.57,14.63,12.46,27.09,29.18,27.68,16.72.59,30.69-10.91,31.26-25.54.57-14.63-12.46-27.09-29.18-27.68h0Z"/><ellipse class="cls-4" cx="196.58" cy="55.68" rx="8.11" ry="7.9" transform="translate(120.17 245.17) rotate(-83.85)"/><path class="cls-4" d="M184.04,22.12c17.21.61,30.58,15.22,29.9,32.74-.68,17.51-1.07,7.88-2.6,11.5-5.28,11.98-16.85,19.34-29.76,18.89s-30.58-15.22-29.9-32.74,15.15-31.14,32.36-30.53h0v.14ZM180.92,80.33c12.54.44,23.72-5.71,28.79-15.81,1.57-3.06,2.34-6.31,2.47-9.73.57-14.63-12.46-27.09-29.18-27.68-16.72-.59-30.69,10.91-31.26,25.54s12.46,27.09,29.18,27.68h0Z"/><ellipse class="cls-4" cx="260.94" cy="115.53" rx="8.11" ry="7.9" transform="translate(118.13 362.6) rotate(-83.85)"/><path class="cls-4" d="M242.75,148c-17.21-.61-30.58-15.22-29.9-32.74s1.07-7.88,2.6-11.5c5.28-11.98,16.85-19.34,29.76-18.89s30.58,15.22,29.9,32.74-15.15,31.14-32.36,30.53h0v-.14ZM245.87,89.79c-12.54-.44-23.72,5.71-28.79,15.81-1.57,3.06-2.34,6.31-2.47,9.73-.57,14.63,12.46,27.09,29.18,27.68,16.72.59,30.69-10.91,31.26-25.54.57-14.63-12.46-27.09-29.18-27.68h0Z"/><ellipse class="cls-4" cx="70.81" cy="177.89" rx="8.11" ry="7.9" transform="translate(-113.64 229.24) rotate(-83.85)"/><path class="cls-4" d="M58.27,144.33c17.21.61,30.58,15.22,29.9,32.74-.68,17.51-1.07,7.88-2.6,11.5-5.28,11.98-16.85,19.34-29.76,18.89s-30.58-15.22-29.9-32.74,15.15-31.14,32.36-30.53h0v.14ZM55.15,202.54c12.54.44,23.72-5.71,28.79-15.81,1.57-3.06,2.34-6.31,2.47-9.73.57-14.63-12.46-27.09-29.18-27.68-16.72-.59-30.69,10.91-31.26,25.54s12.46,27.09,29.18,27.68h0Z"/><ellipse class="cls-4" cx="135.87" cy="238.94" rx="8.11" ry="7.9" transform="translate(-116.24 348.44) rotate(-83.85)"/><path class="cls-4" d="M117.68,271.41c-17.21-.61-30.58-15.22-29.9-32.74s1.07-7.88,2.6-11.5c5.28-11.98,16.85-19.34,29.76-18.89,12.91.46,30.58,15.22,29.9,32.74s-15.15,31.14-32.36,30.53h0v-.14ZM120.8,213.2c-12.54-.44-23.72,5.71-28.79,15.81-1.57,3.06-2.34,6.31-2.47,9.73-.57,14.63,12.46,27.09,29.18,27.68,16.72.59,30.69-10.91,31.26-25.54.57-14.63-12.46-27.09-29.18-27.68h0Z"/><ellipse class="cls-4" cx="164.29" cy="239.38" rx="8.11" ry="7.9" transform="translate(-91.31 377.09) rotate(-83.85)"/><path class="cls-4" d="M182.48,206.91c17.21.61,30.58,15.22,29.9,32.74-.68,17.51-1.07,7.88-2.6,11.5-5.28,11.98-16.85,19.34-29.76,18.89-12.91-.46-30.58-15.22-29.9-32.74s15.15-31.14,32.36-30.53h0v.14ZM179.36,265.12c12.54.44,23.72-5.71,28.79-15.81,1.57-3.06,2.34-6.31,2.47-9.73.57-14.63-12.46-27.09-29.18-27.68-16.72-.59-30.69,10.91-31.26,25.54s12.46,27.09,29.18,27.68h0Z"/><ellipse class="cls-4" cx="104.96" cy="177.38" rx="8.11" ry="7.9" transform="translate(-82.63 262.74) rotate(-83.85)"/><path class="cls-4" d="M118.34,209.53c-17.21-.61-30.58-15.22-29.9-32.74s1.07-7.88,2.6-11.5c5.28-11.98,16.85-19.34,29.76-18.89s30.58,15.22,29.9,32.74-15.15,31.14-32.36,30.53h0v-.14ZM121.46,151.32c-12.54-.44-23.72,5.71-28.79,15.81-1.57,3.06-2.34,6.31-2.47,9.73-.57,14.63,12.46,27.09,29.18,27.68,16.72.59,30.69-10.91,31.26-25.54.57-14.63-12.46-27.09-29.18-27.68h0Z"/><ellipse class="cls-4" cx="195.68" cy="178.59" rx="8.11" ry="7.9" transform="translate(-2.83 354.02) rotate(-83.85)"/><path class="cls-4" d="M183.14,145.03c17.21.61,30.58,15.22,29.9,32.74s-1.07,7.88-2.6,11.5c-5.28,11.98-16.85,19.34-29.76,18.89s-30.58-15.22-29.9-32.74,15.15-31.14,32.36-30.53h0v.14ZM180.02,203.24c12.54.44,23.72-5.71,28.79-15.81,1.57-3.06,2.34-6.31,2.47-9.73.57-14.63-12.46-27.09-29.18-27.68s-30.69,10.91-31.26,25.54c-.57,14.63,12.46,27.09,29.18,27.68h0Z"/><ellipse class="cls-4" cx="229.13" cy="176.88" rx="8.11" ry="7.9" transform="translate(28.73 385.74) rotate(-83.85)"/><path class="cls-4" d="M242.5,209.03c-17.21-.61-30.58-15.22-29.9-32.74.68-17.51,1.07-7.88,2.6-11.5,5.28-11.98,16.85-19.34,29.76-18.89,12.91.46,30.58,15.22,29.9,32.74-.68,17.51-15.15,31.14-32.36,30.53h0v-.14ZM245.62,150.81c-12.54-.44-23.72,5.71-28.79,15.81-1.57,3.06-2.34,6.31-2.47,9.73-.57,14.63,12.46,27.09,29.18,27.68,16.72.59,30.69-10.91,31.26-25.54.57-14.63-12.46-27.09-29.18-27.68h0Z"/></g><ellipse class="cls-3" cx="217.13" cy="130.09" rx="11.91" ry="13.05"/><path class="cls-3" d="M191.66,183.34c-25.94,0-46.92-22.74-46.92-50.93,0-12.15,1.14-12.73,3.24-18.65,7.25-19.55,24.22-32.06,43.68-32.06s46.92,22.74,46.92,50.93-20.98,50.93-46.92,50.93h0v-.23ZM192.64,89.56c-18.9,0-35.37,10.52-42.4,27.06-2.18,5.01-3.15,10.27-3.15,15.78,0,23.55,20.35,42.84,45.55,42.84s45.55-19.29,45.55-42.84-20.35-42.84-45.55-42.84h0Z"/><path class="cls-3" d="M64.78,78.38c2.88,0,5.19,2.98,5.19,6.64l-1.29,96.84c0,23.81,14.79,43.05,32.84,43.05s32.84-19.23,32.84-43.05V44.96c0-3.66,2.3-6.64,5.19-6.64s5.19,2.98,5.19,6.64v136.9c0,31.14-19.4,56.33-43.02,56.33s-43.22-25.19-43.22-56.33l1.29-96.84c0-3.66,2.3-6.64,5.19-6.64h-.19Z"/><path class="cls-3" d="M262.37,186.99c0,1.83-1.34,3.21-3.07,3.21h-93.14c-10.56,0-19.01,9.39-19.01,20.61s8.64,20.61,19.01,20.61h40.72c1.73,0,3.07,1.37,3.07,3.21s-1.34,3.21-3.07,3.21h-40.72c-13.83,0-24.97-12.14-24.97-27.25s11.14-27.25,24.97-27.25h93.14c1.73,0,3.07,1.37,3.07,3.21h0v.46Z"/><ellipse class="cls-3" cx="174.01" cy="144.03" rx="11.91" ry="13.05"/></g></svg>