<?xml version="1.0" encoding="UTF-8"?><svg id="Layer_2" xmlns="http://www.w3.org/2000/svg" width="244.94" height="244.94" viewBox="0 0 244.94 244.94"><defs><style>.cls-1{fill:#dee66d;}.cls-1,.cls-2{stroke-width:0px;}.cls-2{fill:#23233d;}</style></defs><g id="Layer_2-2"><circle class="cls-2" cx="122.47" cy="122.47" r="122.47"/><ellipse class="cls-1" cx="181.67" cy="104.63" rx="10.37" ry="11.37"/><path class="cls-1" d="M159.49,151c-22.59,0-40.86-19.8-40.86-44.36s1-11.09,2.82-16.24c6.31-17.03,21.1-27.92,38.04-27.92s40.86,19.8,40.86,44.36-18.27,44.36-40.86,44.36h0v-.2ZM160.6,69.34c-16.46,0-30.81,9.16-36.92,23.56-1.9,4.36-2.74,8.95-2.74,13.75,0,20.51,17.72,37.31,39.67,37.31s39.67-16.8,39.67-37.31-17.72-37.31-39.67-37.31h0Z"/><path class="cls-1" d="M48.99,59.6c2.51,0,4.52,2.59,4.52,5.78l-1.12,84.34c0,20.74,12.88,37.49,28.6,37.49s28.6-16.75,28.6-37.49V30.49c0-3.19,2.01-5.78,4.52-5.78s4.52,2.59,4.52,5.78v119.23c0,27.12-16.89,49.05-37.47,49.05s-37.64-21.94-37.64-49.05l1.12-84.34c0-3.19,2.01-5.78,4.52-5.78h-.17Z"/><path class="cls-1" d="M221.07,154.18c0,1.6-1.17,2.79-2.68,2.79h-81.11c-9.2,0-16.56,8.18-16.56,17.95s7.53,17.95,16.56,17.95h35.46c1.51,0,2.68,1.2,2.68,2.79s-1.17,2.79-2.68,2.79h-35.46c-12.04,0-21.75-10.57-21.75-23.73s9.7-23.73,21.75-23.73h81.11c1.51,0,2.68,1.2,2.68,2.79h0v.4Z"/><ellipse class="cls-1" cx="144.12" cy="116.77" rx="10.37" ry="11.37"/></g></svg>