<?xml version="1.0" encoding="UTF-8"?><svg id="Layer_2" xmlns="http://www.w3.org/2000/svg" width="350" height="350" xmlns:xlink="http://www.w3.org/1999/xlink" viewBox="0 0 350 350"><defs><style>.cls-1{stroke-linecap:round;}.cls-1,.cls-2{fill:none;stroke:#ccff29;stroke-miterlimit:10;stroke-width:14px;}.cls-3{filter:url(#drop-shadow-1);}.cls-4{opacity:.56;}.cls-4,.cls-5{fill:#21212b;stroke-width:0px;}.cls-5{opacity:.74;}</style><filter id="drop-shadow-1" filterUnits="userSpaceOnUse"><feOffset dx="7" dy="7"/><feGaussianBlur result="blur" stdDeviation="3"/><feFlood flood-color="#000" flood-opacity=".5"/><feComposite in2="blur" operator="in"/><feComposite in="SourceGraphic"/></filter></defs><g id="Layer_2-2"><path class="cls-4" d="M20.51,11.29h283.08c25.62,0,46.41,20.8,46.41,46.41v281.82c0,5.78-4.69,10.47-10.47,10.47H67.95c-31.96,0-57.91-25.95-57.91-57.91V21.76c0-5.78,4.69-10.47,10.47-10.47Z"/><path class="cls-5" d="M10.47,0h283.08C319.17,0,339.96,20.8,339.96,46.41v281.82c0,5.78-4.69,10.47-10.47,10.47H57.91c-31.96,0-57.91-25.95-57.91-57.91V10.47C0,4.69,4.69,0,10.47,0Z"/><g class="cls-3"><path class="cls-1" d="M154.41,156.83v1.07c0,20.68-19.95,38.34-45.59,39.03-26.81.72-48.82-16.58-48.82-38.03V60"/><circle class="cls-1" cx="220.61" cy="135.48" r="68.47"/><path class="cls-1" d="M192.25,203.9h-1.07c-20.68,0-38.34,16.08-39.03,36.75-.72,21.61,16.58,39.35,38.03,39.35h98.89"/><line class="cls-1" x1="190.19" y1="203.9" x2="221.69" y2="203.9"/><circle class="cls-2" cx="220.61" cy="135.48" r="21.54"/></g></g></svg>