<?xml version="1.0" encoding="UTF-8"?><svg id="Layer_2" xmlns="http://www.w3.org/2000/svg" width="232.51" height="226.44" viewBox="0 0 232.51 226.44"><defs><style>.cls-1,.cls-2,.cls-3,.cls-4{fill:none;stroke-miterlimit:10;stroke-width:12px;}.cls-1,.cls-4{stroke:#ccff29;}.cls-2,.cls-3{stroke:#21212b;}.cls-2,.cls-4{stroke-linecap:round;}</style></defs><g id="Layer_2-2"><path class="cls-2" d="M96.87,101.88v1.03c0,19.91-19.2,36.9-43.88,37.57-25.8.69-46.99-15.96-46.99-36.61V8.68"/><circle class="cls-2" cx="160.6" cy="81.33" r="65.91"/><path class="cls-2" d="M133.3,147.19h-1.03c-19.91,0-36.9,15.48-37.57,35.37-.69,20.8,15.96,37.88,36.61,37.88h95.19"/><line class="cls-2" x1="131.31" y1="147.19" x2="161.64" y2="147.19"/><circle class="cls-3" cx="160.6" cy="81.33" r="20.73"/><path class="cls-4" d="M98.73,97.87v1.01c0,19.62-18.92,36.37-43.25,37.03-25.43.68-46.32-15.73-46.32-36.08V6"/><circle class="cls-4" cx="161.54" cy="77.61" r="64.96"/><path class="cls-4" d="M134.64,142.52h-1.01c-19.62,0-36.37,15.26-37.03,34.87-.68,20.5,15.73,37.34,36.08,37.34h93.83"/><line class="cls-4" x1="132.68" y1="142.52" x2="162.57" y2="142.52"/><circle class="cls-1" cx="161.54" cy="77.61" r="20.43"/></g></svg>