<?xml version="1.0" encoding="UTF-8"?>
<svg id="Layer_2" data-name="Layer 2" xmlns="http://www.w3.org/2000/svg" version="1.1" viewBox="0 0 413.5 178.7">
  <defs>
    <style>
      .cls-1 {
        fill: #dee66d;
        stroke-width: 0px;
      }
    </style>
  </defs>
  <path class="cls-1" d="M143.5,134.4c0,1.6-1.2,2.8-2.7,2.8h-35.5c-9.2,0-16.6,8.2-16.6,17.9s7.5,17.9,16.6,17.9h35.5c1.5,0,2.7,1.2,2.7,2.8s-1.2,2.8-2.7,2.8h-35.5c-12,0-21.8-10.6-21.8-23.7s9.7-23.7,21.8-23.7h35.5c1.5,0,2.7,1.2,2.7,2.8h0v.4h0Z"/>
  <path class="cls-1" d="M214.6,45.8c0,1.6-1.2,2.8-2.7,2.8h-35.5c-9.2,0-16.6,8-16.6,17.7s7.5,17.7,16.6,17.7h35.5c1.5,0,2.7,1.2,2.7,2.8s-1.2,2.8-2.7,2.8h-35.5c-12,0-21.8-10.4-21.8-23.3s9.9-23.3,21.8-23.3h35.5c1.5,0,2.7,1.2,2.7,2.8h0v.4h0Z"/>
  <path class="cls-1" d="M214.6,86.8c0,1.6-1.2,2.8-2.7,2.8h-35.5c-9.2,0-16.6,8-16.6,17.7s7.5,17.7,16.6,17.7h35.5c1.5,0,2.7,1.2,2.7,2.8s-1.2,2.8-2.7,2.8h-35.5c-12,0-21.8-10.4-21.8-23.3s9.7-23.3,21.8-23.3h35.5c1.5,0,2.7,1.2,2.7,2.8h0v.4h0Z"/>
  <ellipse class="cls-1" cx="138.9" cy="84.8" rx="10.4" ry="11.4"/>
  <path class="cls-1" d="M4.3,39.1c2.5,0,4.5,2.6,4.5,5.8v80.2c0,20.7,12.9,37.5,28.6,37.5s28.6-16.8,28.6-37.5V5.8c0-3.2,2-5.8,4.5-5.8s4.5,2.6,4.5,5.8v119.2c0,27.1-16.9,49-37.5,49S0,152.1,0,125V44.8c0-3.2,2-5.8,4.5-5.8h-.2Z"/>
  <ellipse class="cls-1" cx="276.5" cy="84.7" rx="10.4" ry="11.4"/>
  <path class="cls-1" d="M409.3,132.2c-2.1,0-3.6-1.7-3.6-3.9v-52.3c0-13.6-10.6-24.4-23.3-24.4s-23.3,11.1-23.3,24.4v52.3c0,2.2-1.5,3.9-3.6,3.9s-3.6-1.7-3.6-3.9v-52.3c0-17.8,13.7-32.1,30.8-32.1s30.8,14.6,30.8,32.1v52.3c0,2.2-1.5,3.9-3.6,3.9h-.5Z"/>
  <path class="cls-1" d="M355.3,132.2c-2.1,0-3.6-1.7-3.6-3.9v-52.3c0-13.6-10.6-24.4-23.3-24.4s-23.3,11.1-23.3,24.4v52.3c0,2.2-1.5,3.9-3.6,3.9s-3.6-1.7-3.6-3.9v-52.3c0-17.8,13.7-32.1,30.8-32.1s30.8,14.3,30.8,32.1v52.3c0,2.2-1.5,3.9-3.6,3.9h-.5Z"/>
  <path class="cls-1" d="M116.7,131.2c-23,0-41.6-20.2-41.6-45.1s1-11.3,2.9-16.5c6.4-17.3,21.5-28.4,38.7-28.4s41.6,20.1,41.6,45.1-18.6,45.1-41.6,45.1h0v-.2h0ZM117.8,48.1c-16.8,0-31.3,9.3-37.6,24-1.9,4.4-2.8,9.1-2.8,14,0,20.9,18,38,40.4,38s40.4-17.1,40.4-38-18-38-40.4-38h0Z"/>
  <path class="cls-1" d="M256.2,131.2c-23,0-41.6-20.2-41.6-45.1s1-11.3,2.9-16.5c6.4-17.3,21.5-28.4,38.7-28.4s41.6,20.1,41.6,45.1-18.6,45.1-41.6,45.1h0v-.2h0ZM257.4,48.1c-16.8,0-31.4,9.3-37.6,24-1.9,4.4-2.8,9.1-2.8,14,0,20.9,18,38,40.4,38s40.4-17.1,40.4-38-18-38-40.4-38h0Z"/>
</svg>