<?xml version="1.0" encoding="UTF-8"?><svg id="Layer_2" xmlns="http://www.w3.org/2000/svg" width="285.28" height="124.37" viewBox="0 0 285.28 124.37"><defs><style>.cls-1{letter-spacing:0em;}.cls-2{stroke-width:0px;}.cls-2,.cls-3{fill:#cf3;}.cls-3{font-family:Roboto-LightItalic, Roboto;font-size:22.18px;font-style:italic;font-weight:300;opacity:.6;}</style></defs><g id="Layer_2-2"><text class="cls-3" transform="translate(102.04 118.36)"><tspan x="0" y="0">geospatial se</tspan><tspan class="cls-1" x="126.16" y="0">r</tspan><tspan x="133.7" y="0">vices</tspan></text><path class="cls-2" d="M146.02,27.68c0,1.07-.79,1.88-1.8,1.88h-23.88c-6.19,0-11.15,5.5-11.15,12.08s5.07,12.08,11.15,12.08h23.88c1.01,0,1.8.81,1.8,1.88s-.79,1.88-1.8,1.88h-23.88c-8.11,0-14.64-7.11-14.64-15.97s6.64-15.97,14.64-15.97h23.88c1.01,0,1.8.81,1.8,1.88h0v.27Z"/><path class="cls-2" d="M146.02,55.74c0,1.07-.79,1.88-1.8,1.88h-23.88c-6.19,0-11.15,5.5-11.15,12.08s5.07,12.08,11.15,12.08h23.88c1.01,0,1.8.81,1.8,1.88s-.79,1.88-1.8,1.88h-23.88c-8.11,0-14.64-7.11-14.64-15.97s6.53-15.97,14.64-15.97h23.88c1.01,0,1.8.81,1.8,1.88h0v.27Z"/><ellipse class="cls-2" cx="94" cy="53.92" rx="6.98" ry="7.69"/><ellipse class="cls-2" cx="189.05" cy="53.92" rx="6.98" ry="7.69"/><path class="cls-2" d="M279.72,85.41c-1.41,0-2.48-1.17-2.48-2.68v-35.53c0-9.22-7.25-16.59-15.91-16.59s-15.91,7.54-15.91,16.59v35.53c0,1.51-1.06,2.68-2.48,2.68s-2.48-1.17-2.48-2.68v-35.53c0-12.07,9.37-21.79,21.04-21.79s21.04,9.89,21.04,21.79v35.53c0,1.51-1.06,2.68-2.48,2.68h-.35Z"/><path class="cls-2" d="M242.76,85.41c-1.41,0-2.48-1.17-2.48-2.68v-35.53c0-9.22-7.25-16.59-15.91-16.59s-15.91,7.54-15.91,16.59v35.53c0,1.51-1.06,2.68-2.48,2.68s-2.48-1.17-2.48-2.68v-35.53c0-12.07,9.37-21.79,21.04-21.79s21.04,9.72,21.04,21.79v35.53c0,1.51-1.06,2.68-2.48,2.68h-.35Z"/><path class="cls-2" d="M3.66,25.55c1.69,0,3.04,1.75,3.04,3.91l-.73,55.08c0,14.03,8.67,25.35,19.26,25.35s19.26-11.33,19.26-25.35V3.91c0-2.16,1.35-3.91,3.04-3.91s3.04,1.75,3.04,3.91v80.63c0,18.34-11.37,33.17-25.23,33.17S0,102.88,0,84.54L.73,29.46c0-2.16,1.35-3.91,3.04-3.91h-.11Z"/><path class="cls-2" d="M103.19,87.59c0,1.08-.75,1.89-1.72,1.89h-35.65c-5.91,0-10.64,5.53-10.64,12.13s4.84,12.13,10.64,12.13h22.79c.97,0,1.72.81,1.72,1.89s-.75,1.89-1.72,1.89h-22.79c-7.74,0-14.26-7.34-14.26-16.24s6.52-15.85,14.26-15.85h35.65c.97,0,1.72.81,1.72,1.89h0v.27Z"/><path class="cls-2" d="M79.05,85.28c-15.2,0-27.49-13.39-27.49-30,0-6.89.67-7.5,1.9-10.98,4.25-11.52,14.19-18.88,25.59-18.88s27.49,13.39,27.49,30-12.29,30-27.49,30h0v-.13ZM79.7,30.45c-10.9,0-20.4,6.1-24.45,15.69-1.26,2.9-1.82,5.95-1.82,9.15,0,13.65,11.74,24.83,26.27,24.83s26.27-11.18,26.27-24.83-11.74-24.83-26.27-24.83h0Z"/><path class="cls-2" d="M175.04,85.41c-15.2,0-27.49-13.39-27.49-30,0-5.8.67-7.5,1.9-10.98,4.25-11.52,14.19-18.88,25.59-18.88s27.49,13.39,27.49,30-12.29,30-27.49,30h0v-.13ZM175.34,30.46c-10.9,0-20.4,6.13-24.45,15.76-1.26,2.92-1.82,5.98-1.82,9.19,0,13.72,11.74,24.96,26.27,24.96s26.27-11.24,26.27-24.96-11.74-24.96-26.27-24.96h0Z"/></g></svg>