<?xml version="1.0" encoding="utf-8"?>
<!-- Generator: Adobe Illustrator 28.2.0, SVG Export Plug-In . SVG Version: 6.00 Build 0)  -->
<svg version="1.1" id="Layer_2_00000018233101535641066780000010096995716342056097_"
	 xmlns="http://www.w3.org/2000/svg" xmlns:xlink="http://www.w3.org/1999/xlink" x="0px" y="0px" viewBox="0 0 665.9 405.5"
	 style="enable-background:new 0 0 665.9 405.5;" xml:space="preserve">
<style type="text/css">
	.st0{fill:#FFFFFF;}
	.st1{fill-rule:evenodd;clip-rule:evenodd;fill:#FF9900;}
</style>
<g id="Layer_2-2">
	<g id="Layer_1-2">
		<g>
			<path class="st0" d="M192,146.9c0,8.2,0.9,14.9,2.4,19.8c1.7,4.9,3.9,10.2,6.9,16c1.1,1.8,1.5,3.6,1.5,5.1c0,2.2-1.3,4.4-4.1,6.7
				l-13.5,9.3c-1.9,1.3-3.9,2-5.6,2c-2.1,0-4.3-1.1-6.4-3.1c-3-3.3-5.6-6.9-7.7-10.4c-2.1-3.8-4.3-8-6.7-13.1
				c-16.8,20.4-37.8,30.6-63.2,30.6c-18,0-32.4-5.3-43-16s-15.9-24.9-15.9-42.6c0-18.9,6.4-34.2,19.6-45.7
				C69.4,94,86.8,88.2,108.9,88.2c7.3,0,14.8,0.7,22.8,1.8s16.1,2.9,24.7,4.9V78.6c0-16.9-3.4-28.6-10.1-35.5
				c-6.9-6.9-18.5-10.2-35-10.2c-7.5,0-15.3,0.9-23.2,2.9s-15.7,4.4-23.2,7.5c-3.4,1.6-6,2.4-7.5,2.9c-1.5,0.4-2.6,0.7-3.4,0.7
				c-3,0-4.5-2.2-4.5-6.9V29.1c0-3.6,0.4-6.2,1.5-7.8c1.1-1.6,3-3.1,6-4.7c7.5-4,16.5-7.3,27.1-10c10.5-2.9,21.7-4.2,33.5-4.2
				c25.6,0,44.3,6,56.3,18c11.8,12,17.8,30.2,17.8,54.6v71.9H192L192,146.9z M104.8,180.6c7.1,0,14.4-1.3,22.1-4s14.6-7.5,20.4-14.2
				c3.4-4.2,6-8.9,7.3-14.2s2.1-11.8,2.1-19.3v-9.3c-6.2-1.6-12.9-2.9-19.8-3.8c-6.9-0.9-13.5-1.3-20.2-1.3c-14.4,0-24.9,2.9-32,8.9
				c-7.1,6-10.5,14.4-10.5,25.5c0,10.4,2.6,18.2,7.9,23.5C87.4,178,94.9,180.6,104.8,180.6L104.8,180.6z M277.3,204.6
				c-3.9,0-6.4-0.7-8.2-2.2c-1.7-1.3-3.2-4.4-4.5-8.7L214.2,22.2c-1.3-4.4-1.9-7.3-1.9-8.9c0-3.6,1.7-5.5,5.2-5.5h21.1
				c4.1,0,6.9,0.7,8.4,2.2c1.7,1.3,3,4.4,4.3,8.7l36.1,146.9l33.5-146.9c1.1-4.4,2.4-7.3,4.1-8.7c1.7-1.3,4.7-2.2,8.6-2.2h17.2
				c4.1,0,6.9,0.7,8.6,2.2c1.7,1.3,3.2,4.4,4.1,8.7l33.9,148.7l37.2-148.7c1.3-4.4,2.8-7.3,4.3-8.7c1.7-1.3,4.5-2.2,8.4-2.2h20
				c3.4,0,5.4,1.8,5.4,5.5c0,1.1-0.2,2.2-0.4,3.6c-0.2,1.3-0.6,3.1-1.5,5.5L418.7,194c-1.3,4.4-2.8,7.3-4.5,8.7
				c-1.7,1.3-4.5,2.2-8.2,2.2h-18.5c-4.1,0-6.9-0.7-8.6-2.2c-1.7-1.6-3.2-4.4-4.1-8.9L341.6,50.6l-33.1,142.9
				c-1.1,4.4-2.4,7.3-4.1,8.9c-1.7,1.6-4.7,2.2-8.6,2.2L277.3,204.6L277.3,204.6z M553.4,210.6c-11.2,0-22.3-1.3-33.1-4
				c-10.7-2.7-19.1-5.5-24.7-8.9c-3.4-2-5.8-4.2-6.7-6.2c-0.9-2-1.3-4.2-1.3-6.2V174c0-4.7,1.7-6.9,4.9-6.9c1.3,0,2.6,0.2,3.9,0.7
				c1.3,0.4,3.2,1.3,5.4,2.2c7.3,3.3,15.3,6,23.6,7.8c8.6,1.8,17,2.7,25.6,2.7c13.5,0,24.1-2.4,31.4-7.3c7.3-4.9,11.2-12,11.2-21.1
				c0-6.2-1.9-11.3-5.8-15.5c-3.9-4.2-11.2-8-21.7-11.5L535,115c-15.7-5.1-27.3-12.6-34.4-22.6c-7.1-9.8-10.7-20.6-10.7-32.2
				c0-9.3,1.9-17.5,5.8-24.6s9-13.3,15.5-18.2c6.4-5.1,13.8-8.9,22.3-11.5s17.6-3.9,27-3.9c4.7,0,9.7,0.2,14.4,0.9
				c4.9,0.7,9.5,1.6,14,2.4c4.3,1.1,8.4,2.2,12.2,3.6c3.9,1.3,6.9,2.7,9,4c3,1.8,5.2,3.6,6.4,5.5c1.3,1.8,1.9,4.2,1.9,7.3v10.4
				c0,4.7-1.7,7.1-4.9,7.1c-1.7,0-4.5-0.9-8.2-2.7c-12.2-5.8-26-8.7-41.3-8.7c-12.2,0-21.9,2-28.6,6.2c-6.7,4.2-10.1,10.7-10.1,19.8
				c0,6.2,2.1,11.5,6.4,15.8s12.2,8.4,23.6,12.2l30.5,10c15.5,5.1,26.6,12.2,33.3,21.3s9.9,19.5,9.9,31.1c0,9.5-1.9,18.2-5.6,25.7
				c-3.9,7.5-9,14.2-15.7,19.5c-6.7,5.5-14.6,9.5-23.8,12.4C574.5,209,564.4,210.6,553.4,210.6L553.4,210.6L553.4,210.6z"/>
			<g>
				<path class="st1" d="M594,318.4c-70.6,54-173.3,82.6-261.7,82.6C208.5,401,97,353.7,12.8,275.2c-6.7-6.2-0.6-14.6,7.3-9.8
					c91.1,54.6,203.5,87.7,319.7,87.7c78.4,0,164.6-16.9,243.9-51.5C595.5,296,605.6,309.6,594,318.4L594,318.4L594,318.4z"/>
				<path class="st1" d="M623.5,283.8c-9-12-59.7-5.8-82.7-2.9c-6.9,0.9-7.9-5.3-1.7-10c40.4-29.3,106.8-20.9,114.5-11.1
					c7.7,10-2.1,78.6-40,111.4c-5.8,5.1-11.4,2.4-8.8-4.2C613.4,345.1,632.5,295.6,623.5,283.8L623.5,283.8z"/>
			</g>
		</g>
	</g>
</g>
</svg>
