<?xml version="1.0" encoding="UTF-8"?>
<svg id="Layer_2" data-name="Layer 2" xmlns="http://www.w3.org/2000/svg" width="361.94" height="458.2" viewBox="0 0 361.94 458.2">
  <defs>
    <style>
      .cls-1 {
        fill: #6a7d85;
      }

      .cls-1, .cls-2, .cls-3, .cls-4, .cls-5, .cls-6, .cls-7, .cls-8, .cls-9, .cls-10, .cls-11, .cls-12, .cls-13, .cls-14, .cls-15, .cls-16, .cls-17, .cls-18, .cls-19, .cls-20, .cls-21, .cls-22 {
        stroke-width: 0px;
      }

      .cls-2 {
        fill: #645666;
      }

      .cls-3 {
        fill: #3e5162;
      }

      .cls-4 {
        fill: #816386;
      }

      .cls-5 {
        fill: #954a66;
      }

      .cls-6 {
        fill: #7a8078;
      }

      .cls-7 {
        fill: #956669;
      }

      .cls-8 {
        fill: #b83b34;
      }

      .cls-9 {
        fill: #c64144;
      }

      .cls-10 {
        fill: #5d8d7e;
      }

      .cls-11 {
        fill: #64859c;
      }

      .cls-12 {
        fill: #3d95af;
      }

      .cls-13 {
        fill: #656492;
      }

      .cls-14 {
        fill: #4b9cbe;
      }

      .cls-15 {
        fill: #8c896c;
      }

      .cls-16 {
        fill: #60875a;
      }

      .cls-17 {
        fill: #6d4b74;
      }

      .cls-18 {
        fill: #6b3937;
      }

      .cls-19 {
        fill: #32919e;
      }

      .cls-20 {
        fill: #a0352f;
      }

      .cls-21 {
        fill: #897554;
      }

      .cls-22 {
        fill: #8a5460;
      }
    </style>
  </defs>
  <g id="Layer_1-2" data-name="Layer 1">
    <path class="cls-20" d="M.52,383.23c-.15-2.15-.44-4.29-.44-6.44-.02-98.86-.02-197.73,0-296.59,0-1.81.29-3.62.44-5.43.45.47,1.18.87,1.3,1.41,3.61,16.44,13.94,28.26,26.41,38.64,2.9,3.41,5.61,7,8.73,10.19,21.73,22.19,43.55,44.28,65.31,66.44,2.78,2.84,5.18,6.06,8.05,8.8,3.92,3.74,8.12,7.18,12.19,10.75.24,1.62.47,3.25.71,4.87-.12.92-.25,1.85-.37,2.77-1.13.94-2.47,1.71-3.36,2.84-7.44,9.38-14.82,18.8-22.17,28.25-19.4,24.93-38.82,49.84-58.13,74.84-5.88,7.61-11.41,15.48-17.11,23.23-4.66,5.94-9.85,11.55-13.81,17.93-3.33,5.37-5.22,11.63-7.75,17.49Z"/>
    <path class="cls-7" d="M.52,383.23c2.53-5.86,4.42-12.12,7.75-17.49,3.96-6.38,9.15-11.98,13.81-17.93,5.85-3.01,11.52-6.51,17.6-8.95,16.92-6.81,33.96-13.3,51.05-19.69,10.69-3.99,21.53-7.57,32.31-11.33.06,25.95-.02,51.91.24,77.86.13,12.7.2,25.29-5.08,37.21-5.25,6.73-10.45,13.5-15.79,20.15-1.62,2.02-3.64,3.71-5.48,5.55-13.43,6.9-27.48,11.08-42.77,9.07C22.3,453.51-.01,427.93,0,395.69c0-4.15.34-8.3.52-12.46ZM61.79,372.2c-13.89.03-24.45,10.5-24.41,24.21.04,13.65,10.84,24.49,24.38,24.48,13.44-.01,24.55-11.06,24.55-24.42,0-13.5-10.9-24.3-24.52-24.27Z"/>
    <path class="cls-9" d="M28.23,114.82c-12.46-10.38-22.8-22.2-26.41-38.64-.12-.54-.85-.95-1.3-1.41-.09-3.65-.19-7.29-.28-10.94,0-1.33,0-2.65,0-3.98.14-2.31.28-4.62.42-6.93.53-2.36,1.06-4.71,1.59-7.07.12-.65.24-1.29.36-1.94.54-1.36,1.07-2.71,1.61-4.07.97-2.35,1.95-4.69,2.92-7.04.51-.89,1.01-1.78,1.52-2.67,4.63-5.4,9.26-10.8,13.89-16.2.89-.67,1.79-1.33,2.69-2,1.01-.69,2.03-1.39,3.04-2.08,1-.59,1.99-1.18,2.99-1.77,5-2.03,10.01-4.05,15.01-6.08,1-.3,2-.59,3-.89.97-.13,1.94-.26,2.91-.4,1.03-.07,2.06-.14,3.1-.21.77-.04,1.54-.09,2.32-.13,2.19-.12,4.37-.25,6.55-.37,1.32.16,2.64.32,3.96.48,1.04.09,2.07.18,3.11.26.98.1,1.96.21,2.94.31,1.54.45,3.08.9,4.62,1.35,1.51.25,3.02.51,4.52.76.26.18.51.36.77.54,1.26.25,2.51.51,3.77.76.42.5.74,1.21,1.28,1.48,11.93,5.85,20.76,15.06,28.17,25.83.25,1.12.36,2.29.77,3.34,3.36,8.39,5.32,16.94,5.24,26.12-.21,25.24.04,50.49.1,75.73,0,0-.21-.03-.21-.03-13.95-2.78-27.91-5.5-41.84-8.36-11.98-2.46-23.98-4.82-35.86-7.71-5.9-1.44-11.53-3.99-17.29-6.03ZM86.32,61.9c.13-13.49-10.7-24.69-24.01-24.85-13.97-.16-24.87,10.44-24.92,24.26-.05,13.48,10.85,24.66,24.12,24.75,13.32.09,24.69-10.98,24.81-24.17Z"/>
    <path class="cls-15" d="M360.12,287.39c3.78,19.66,2.22,38.41-9.94,55.13-9.24,12.7-21.65,20.81-37.02,24.28-.79-.06-1.64-.33-2.36-.14-9.43,2.51-18.77,1.5-27.96-.99-15.05-4.08-26.39-13.47-35.64-25.69-1.99-4.71-4.95-9.25-5.77-14.15-1.94-11.52-2.74-23.23-4.26-34.83-.67-5.1-1.95-10.13-2.95-15.19,3.33-4.62,6.67-9.24,10-13.86.99-.71,1.98-1.42,2.96-2.14,9.02-3.32,18.14-6.38,27.03-10.02,15.5-6.34,31.08-7.81,46.97-1.8,4.48,1.7,8.8,3.83,13.19,5.76,9.85,8.81,19.3,17.92,23.71,30.93.34,1.02,1.34,1.81,2.03,2.71ZM300.27,282.03c-12.06-1.21-24.76,10.08-24.6,24,.16,13.86,10.38,24.45,24.19,24.56,13.81.11,24.42-10.35,24.49-24.15.07-14-10.18-24.39-24.08-24.41Z"/>
    <path class="cls-14" d="M316.55,52.61c1.89,1.1,3.79,2.2,5.68,3.29.77.57,1.54,1.14,2.31,1.72.55.44,1.11.88,1.66,1.33.67.61,1.34,1.23,2,1.84,1.36,1.33,2.72,2.66,4.07,3.98.64.67,1.27,1.35,1.91,2.03.44.5.89,1.01,1.33,1.51.83,1.17,1.66,2.34,2.5,3.51.56.76,1.12,1.52,1.68,2.29,1.95,4.26,3.91,8.52,5.86,12.78.17.68.34,1.36.52,2.03.55,1.98,1.1,3.96,1.65,5.94.13,1.35.25,2.7.38,4.06-.28,3.59-1.05,7.22-.76,10.76,1.59,19.4-8.51,33.33-21.13,46.15-1.74.9-3.55,1.69-5.22,2.72-12.05,7.41-25.02,11.39-39.2,9.41-11.63-1.63-23.15-4.01-34.72-6.05-1.35-1.11-2.78-2.14-4.04-3.34-5.2-4.93-10.35-9.91-15.52-14.87-.13-.93-.26-1.85-.4-2.78-.43-8.45-.3-16.97-1.41-25.33-1.61-12.1,1.17-23.43,4.44-34.79.42-.91.83-1.83,1.25-2.74.59-.75,1.18-1.49,1.77-2.24,5.26-8.59,12.06-15.68,20.46-21.26,10.07-6.7,21.37-9.33,33.22-10.18,2.8.32,5.59.63,8.38.95,2.31.53,4.62,1.07,6.93,1.6.68.12,1.36.24,2.04.36,2.78,1.12,5.56,2.24,8.34,3.36.56.19,1.11.38,1.67.58.78.47,1.57.94,2.35,1.41ZM286.91,130.9c13.53.09,24.58-10.43,24.76-23.55.19-14.16-10.85-25.43-24.73-25.26-13.33.16-24.19,10.99-24.32,24.23-.13,13.58,10.65,24.49,24.29,24.59Z"/>
    <path class="cls-16" d="M247.2,339.97c9.24,12.22,20.59,21.61,35.64,25.69,9.19,2.49,18.53,3.51,27.96.99.72-.19,1.57.08,2.36.14-7.98,3.21-15.91,6.57-23.96,9.62-41.65,15.8-83.33,31.53-125,47.28-21.77,8.23-43.53,16.49-65.3,24.7-.59.22-1.3.15-1.96.21,1.83-1.84,3.86-3.53,5.48-5.55,5.34-6.65,10.54-13.43,15.79-20.15,1.25-1.02,2.74-1.86,3.7-3.1,12.9-16.5,25.72-33.06,38.56-49.6,16.92-21.8,33.83-43.6,50.75-65.41.34,0,.68-.01,1.02-.02,2.03,1.96,4.14,3.84,6.08,5.89,8.42,8.94,16.76,17.94,25.21,26.86.99,1.04,2.44,1.64,3.68,2.44Z"/>
    <path class="cls-17" d="M231.39,78.05c-.42.91-.83,1.83-1.25,2.74-9.32,11.68-18.65,23.36-27.97,35.04-.6.31-1.2.62-1.8.93-.69-1.12-1.2-2.4-2.08-3.33-11.15-11.86-22.2-23.82-33.57-35.47-13.94-14.28-28.14-28.32-42.29-42.4-1.49-1.48-3.41-2.53-5.12-3.78-7.41-10.77-16.24-19.98-28.17-25.83-.54-.26-.85-.97-1.28-1.48,9.63,1.68,19.29,3.2,28.88,5.07,25.92,5.06,51.81,10.22,77.7,15.42,21.81,4.38,43.59,8.87,65.39,13.29,7.65,1.55,15.31,3,22.95,4.59,1.4.29,2.71,1.01,4.06,1.53-11.85.85-23.15,3.49-33.22,10.18-8.4,5.58-15.2,12.68-20.46,21.26-.59.75-1.18,1.49-1.77,2.24Z"/>
    <path class="cls-19" d="M326.21,155.83c12.62-12.83,22.72-26.75,21.13-46.15-.29-3.54.48-7.17.76-10.76.66,7.43,1.45,14.85,1.96,22.28,1.92,28.02,3.79,56.04,5.59,84.07,1.21,18.91,2.32,37.83,3.38,56.76.48,8.45.74,16.9,1.1,25.36-.69-.9-1.69-1.69-2.03-2.71-4.41-13-13.86-22.12-23.71-30.93-1.29-1.7-2.42-3.55-3.9-5.06-13.7-14-27.47-27.94-41.21-41.9-.02-.34-.04-.68-.06-1.02.34-.75.55-1.61,1.04-2.24,8.45-10.9,17.02-21.72,25.39-32.68,3.71-4.86,7.06-9.99,10.58-15Z"/>
    <path class="cls-19" d="M345.56,86.89c-1.95-4.26-3.91-8.52-5.86-12.78,1.95,4.26,3.91,8.52,5.86,12.78Z"/>
    <path class="cls-19" d="M312.54,50.62c-2.78-1.12-5.56-2.24-8.34-3.36,2.78,1.12,5.56,2.24,8.34,3.36Z"/>
    <path class="cls-19" d="M302.15,46.91c-2.31-.53-4.62-1.07-6.93-1.6,2.31.53,4.62,1.07,6.93,1.6Z"/>
    <path class="cls-20" d="M2.25,45.84c-.53,2.36-1.06,4.71-1.59,7.07.53-2.36,1.06-4.71,1.59-7.07Z"/>
    <path class="cls-19" d="M347.72,94.87c-.55-1.98-1.1-3.96-1.65-5.94.55,1.98,1.1,3.96,1.65,5.94Z"/>
    <path class="cls-20" d="M64.16,0c-2.18.13-4.37.25-6.55.37,2.18-.13,4.37-.25,6.55-.37Z"/>
    <path class="cls-20" d="M.24,59.85c0,1.33,0,2.65,0,3.98,0-1.33,0-2.65,0-3.98Z"/>
    <path class="cls-20" d="M4.22,39.84c-.54,1.36-1.07,2.71-1.61,4.07.54-1.36,1.07-2.71,1.61-4.07Z"/>
    <path class="cls-20" d="M78.79,2.4c-1.54-.45-3.08-.9-4.62-1.35,1.54.45,3.08.9,4.62,1.35Z"/>
    <path class="cls-19" d="M338.02,71.83c-.83-1.17-1.67-2.34-2.5-3.51.83,1.17,1.67,2.34,2.5,3.51Z"/>
    <path class="cls-20" d="M49.28,1.11c-1,.3-2,.59-3,.89,1-.3,2-.59,3-.89Z"/>
    <path class="cls-20" d="M71.23.74c-1.04-.09-2.07-.18-3.11-.26,1.04.09,2.07.18,3.11.26Z"/>
    <path class="cls-20" d="M55.29.5c-1.03.07-2.06.14-3.1.21,1.03-.07,2.06-.14,3.1-.21Z"/>
    <path class="cls-20" d="M31.27,8.07c-1,.59-1.99,1.18-2.99,1.77,1-.59,1.99-1.18,2.99-1.77Z"/>
    <path class="cls-20" d="M25.24,11.93c-.9.67-1.79,1.33-2.69,2,.9-.67,1.79-1.33,2.69-2Z"/>
    <path class="cls-19" d="M334.19,66.8c-.64-.68-1.27-1.35-1.91-2.03.64.68,1.27,1.35,1.91,2.03Z"/>
    <path class="cls-19" d="M328.21,60.79c-.67-.61-1.34-1.23-2-1.84.67.61,1.34,1.23,2,1.84Z"/>
    <path class="cls-19" d="M324.55,57.62c-.77-.57-1.54-1.15-2.31-1.72.77.57,1.54,1.15,2.31,1.72Z"/>
    <path class="cls-19" d="M316.55,52.61c-.78-.47-1.57-.94-2.35-1.41.78.47,1.57.94,2.35,1.41Z"/>
    <path class="cls-20" d="M8.66,30.13c-.51.89-1.01,1.78-1.52,2.67.51-.89,1.01-1.78,1.52-2.67Z"/>
    <path class="cls-20" d="M84.09,3.7c-.26-.18-.52-.36-.77-.54.26.18.51.36.77.54Z"/>
    <path class="cls-22" d="M123.04,307.85c-10.77,3.76-21.62,7.33-32.31,11.33-17.08,6.38-34.13,12.88-51.05,19.69-6.08,2.45-11.74,5.94-17.6,8.95,5.69-7.75,11.23-15.62,17.11-23.23,19.31-25,38.73-49.91,58.13-74.84,7.35-9.45,14.73-18.87,22.17-28.25.89-1.13,2.23-1.9,3.37-2.84.12,2.49.34,4.98.35,7.47.09,26.65.15,53.3.22,79.96-.13.59-.26,1.18-.39,1.77Z"/>
    <path class="cls-8" d="M28.23,114.82c5.75,2.05,11.38,4.59,17.29,6.03,11.87,2.9,23.88,5.26,35.86,7.71,13.93,2.86,27.89,5.58,41.84,8.36-.23,24.69-.46,49.39-.69,74.08-4.08-3.57-8.28-7.01-12.2-10.75-2.87-2.74-5.27-5.97-8.05-8.8-21.76-22.16-43.58-44.25-65.31-66.44-3.12-3.19-5.83-6.78-8.73-10.19Z"/>
    <path class="cls-3" d="M123.42,306.08c-.07-26.65-.13-53.3-.22-79.96,0-2.49-.23-4.98-.35-7.47.12-.93.25-1.85.37-2.77.36-.03.72-.05,1.07-.08,1.6,1.15,3.4,2.09,4.76,3.47,17.3,17.55,34.59,35.12,51.74,52.82,2.85,2.94,5.05,6.52,7.55,9.81-11.76,4.62-23.46,9.39-35.29,13.81-9.8,3.67-19.75,6.93-29.64,10.37Z"/>
    <path class="cls-18" d="M124.3,215.8c-.36.03-.72.05-1.08.08-.24-1.62-.48-3.25-.71-4.87.23-24.69.46-49.39.69-74.08,0,0,.21.03.21.03,6.82,1.33,13.66,2.59,20.46,4.02,10.55,2.21,21.07,4.54,31.6,6.83-2.72,4.13-5.19,8.44-8.19,12.35-14.25,18.61-28.64,37.11-42.99,55.65Z"/>
    <path class="cls-10" d="M123.42,306.08c9.89-3.44,19.84-6.7,29.64-10.37,11.83-4.43,23.54-9.19,35.29-13.81.94.01,1.88.02,2.82.04,2.3,2.76,4.54,5.57,6.91,8.26,4.34,4.91,8.75,9.75,13.14,14.62-16.92,21.8-33.83,43.61-50.75,65.41-12.84,16.55-25.66,33.1-38.56,49.6-.97,1.24-2.46,2.07-3.7,3.1,5.28-11.92,5.2-24.51,5.08-37.21-.26-25.95-.18-51.91-.24-77.86.13-.59.26-1.18.38-1.77Z"/>
    <path class="cls-5" d="M175.48,147.8c-10.53-2.28-21.05-4.61-31.6-6.83-6.8-1.43-13.64-2.69-20.46-4.02-.06-25.24-.31-50.49-.1-75.73.08-9.18-1.88-17.73-5.24-26.12-.42-1.05-.52-2.22-.77-3.34,1.72,1.25,3.64,2.3,5.12,3.78,14.15,14.08,28.34,28.12,42.29,42.4,11.37,11.65,22.42,23.61,33.57,35.47.88.94,1.4,2.21,2.08,3.33-4.48,5.96-9.04,11.87-13.42,17.91-3.08,4.25-5.9,8.68-8.83,13.03-.88.03-1.76.07-2.64.1Z"/>
    <path class="cls-11" d="M289.2,205.76c.02.34.04.68.06,1.02-1.3.96-2.88,1.69-3.85,2.91-6.81,8.55-13.57,17.15-20.19,25.84-6.11,8.02-12.03,16.18-18.03,24.28-.99.71-1.98,1.42-2.96,2.13-2.98.64-5.97,1.28-8.95,1.93-.66-9.46-1.38-18.91-1.96-28.37-1.13-18.43-2.11-36.87-3.28-55.29-.47-7.46-1.25-14.9-1.88-22.35-.22-4.72-.44-9.44-.66-14.16,5.17,4.96,10.32,9.94,15.52,14.87,1.27,1.2,2.69,2.23,4.04,3.34,1.27,1.7,2.4,3.53,3.83,5.08,4.6,4.97,9.21,9.93,13.99,14.73,8.04,8.08,16.2,16.04,24.31,24.04Z"/>
    <path class="cls-1" d="M247.19,259.81c6-8.1,11.92-16.26,18.03-24.28,6.62-8.7,13.38-17.29,20.19-25.84.97-1.22,2.55-1.95,3.85-2.91,13.75,13.96,27.51,27.9,41.22,41.9,1.48,1.51,2.61,3.37,3.9,5.06-4.39-1.93-8.71-4.06-13.19-5.76-15.88-6.01-31.47-4.54-46.97,1.8-8.89,3.64-18.01,6.7-27.03,10.02Z"/>
    <path class="cls-6" d="M235.28,263.87c2.98-.64,5.97-1.28,8.95-1.93-3.33,4.62-6.67,9.24-10,13.86-4.26,5.43-8.57,10.82-12.75,16.31-3.17,4.16-6.16,8.45-9.23,12.68-.34,0-.68.01-1.02.02-4.38-4.87-8.8-9.71-13.14-14.62-2.37-2.69-4.61-5.5-6.91-8.26,4.63-2,9.22-4.09,13.89-5.99,10.05-4.08,20.14-8.06,30.21-12.08Z"/>
    <path class="cls-21" d="M212.24,304.79c3.07-4.23,6.07-8.52,9.23-12.68,4.18-5.49,8.49-10.88,12.75-16.31,1,5.06,2.28,10.08,2.95,15.19,1.51,11.6,2.31,23.31,4.26,34.83.83,4.9,3.78,9.44,5.77,14.15-1.24-.8-2.69-1.4-3.68-2.44-8.45-8.91-16.79-17.92-25.21-26.86-1.93-2.05-4.05-3.93-6.08-5.89Z"/>
    <path class="cls-12" d="M289.2,205.76c-8.11-8.01-16.28-15.96-24.31-24.04-4.77-4.8-9.39-9.76-13.99-14.73-1.43-1.55-2.56-3.38-3.83-5.08,11.57,2.05,23.09,4.43,34.72,6.05,14.18,1.98,27.15-2,39.2-9.41,1.67-1.03,3.48-1.82,5.22-2.72-3.51,5.01-6.87,10.14-10.58,15-8.38,10.96-16.94,21.78-25.39,32.68-.49.64-.7,1.49-1.04,2.24Z"/>
    <path class="cls-4" d="M227.5,143.69c.22,4.72.44,9.44.66,14.16-16.68-3.38-33.36-6.77-50.04-10.15,2.94-4.35,5.76-8.78,8.83-13.03,4.38-6.04,8.94-11.95,13.42-17.91.6-.31,1.2-.62,1.8-.93,2.99,3.47,5.76,7.16,9.01,10.37,5.14,5.08,10.6,9.83,15.93,14.72.13.93.26,1.85.4,2.78Z"/>
    <path class="cls-13" d="M227.11,140.92c-5.32-4.89-10.78-9.65-15.93-14.72-3.25-3.21-6.02-6.9-9.01-10.37,9.32-11.68,18.65-23.36,27.97-35.04-3.27,11.36-6.05,22.69-4.44,34.79,1.11,8.36.98,16.88,1.41,25.33Z"/>
    <path class="cls-13" d="M231.39,78.05c.59-.75,1.18-1.49,1.77-2.24-.59.75-1.18,1.49-1.77,2.24Z"/>
    <path class="cls-2" d="M178.12,147.69c16.68,3.38,33.36,6.77,50.04,10.15.64,7.45,1.41,14.89,1.88,22.35,1.16,18.43,2.15,36.86,3.28,55.29.58,9.46,1.3,18.91,1.96,28.37-10.07,4.02-20.16,8-30.21,12.08-4.67,1.9-9.26,3.98-13.89,5.99-.94-.01-1.88-.02-2.82-.04-2.5-3.28-4.7-6.86-7.55-9.81-17.15-17.7-34.44-35.26-51.74-52.82-1.36-1.38-3.16-2.33-4.76-3.47,14.34-18.54,28.74-37.04,42.99-55.65,3-3.91,5.47-8.22,8.19-12.35.88-.04,1.76-.07,2.64-.1Z"/>
  </g>
</svg>