<?xml version="1.0" encoding="UTF-8"?>
<svg id="Layer_2" data-name="Layer 2" xmlns="http://www.w3.org/2000/svg" width="255.99" height="233.38" viewBox="0 0 255.99 233.38">
  <defs>
    <style>
      .cls-1 {
        fill: #186bfd;
      }

      .cls-1, .cls-2, .cls-3, .cls-4, .cls-5, .cls-6 {
        stroke-width: 0px;
      }

      .cls-2 {
        fill: #0b62fe;
      }

      .cls-3 {
        fill: #6699e6;
      }

      .cls-4 {
        fill: #0d63fe;
      }

      .cls-5 {
        fill: #0c3d90;
      }

      .cls-6 {
        fill: #fbfcfe;
      }
    </style>
  </defs>
  <g id="Layer_2-2" data-name="Layer 2">
    <g id="Layer_1-2" data-name="Layer 1-2">
      <path class="cls-5" d="M255.99,42.33v191.05H38.03c-9.04,0-13.7-3.86-15.23-12.44.1-5.13-.03-10.28.43-15.38.16-1.79,1.37-4.06,2.82-5.05,5.06-3.45,10.43-6.44,15.68-9.61,1,.08,1.99.24,2.99.24,62.66.02,125.33,0,187.99.09,4.09,0,5.09-1.64,5.05-5.37-.14-13.5-.04-27-.06-40.51-.04-34.34-.1-68.67-.15-103.01h18.44Z"/>
      <path class="cls-3" d="M41.74,190.9c-5.25,3.17-10.63,6.16-15.68,9.61-1.45.99-2.66,3.26-2.82,5.05-.46,5.1-.33,10.25-.43,15.39-.29-5.67-.58-11.34-.91-17.73-2.62,1.5-4.7,2.73-6.82,3.9-5.02,2.77-10.05,5.51-15.08,8.26V24.33C12.19,17.07,24.37,9.79,36.6,2.58c1.66-.98,3.54-1.57,5.32-2.34v1.15c-.03,2.17-.1,4.33-.1,6.5-.03,61-.04,122.01-.07,183.01h-.01Z"/>
      <path class="cls-1" d="M43,.27c1.66-.09,3.31-.26,4.97-.26C105.57,0,163.17,0,220.77,0c12.2,0,16.84,4.63,16.85,16.87,0,8.49-.03,16.98-.05,25.47.05,34.33.1,68.67.15,103.01.02,13.5-.09,27.01.06,40.51.04,3.73-.97,5.38-5.05,5.37-62.66-.1-125.33-.07-187.99-.09-1,0-1.99-.16-2.99-.24.02-61,.04-122.01.06-183.01,0-2.17.06-4.33.1-6.5.37-.37.73-.75,1.1-1.12h0ZM122.22,81.96c.87,1.6,1.81,3.15,2.59,4.79,9.11,19.25,18.16,38.53,27.36,57.74.75,1.56,2.44,3.73,3.77,3.78,8.75.34,17.53.17,26.36.17V42.85h-22.57v62.84c-1.47-1.36-2.23-2.8-2.95-4.27-8.99-18.38-17.95-36.78-27.03-55.13-.73-1.47-2.19-3.63-3.36-3.67-9.74-.3-19.5-.17-29.25-.17v105.97h22.08c.59-1.95,1.68-3.89,1.7-5.85.13-17.61.03-35.22.13-52.82.02-2.6.76-5.19,1.17-7.78h0Z"/>
      <path class="cls-2" d="M43,.27c-.37.37-.73.75-1.1,1.12V.24c.37.01.73.02,1.1.03Z"/>
      <path class="cls-6" d="M119.22,148.41h-22.08V42.45c9.75,0,19.51-.13,29.25.17,1.17.04,2.63,2.2,3.36,3.67,9.07,18.34,18.03,36.74,27.03,55.13.72,1.47,1.47,2.91,2.95,4.27v-62.84h22.57v105.6c-8.84,0-17.61.16-26.36-.17-1.33-.05-3.02-2.22-3.77-3.78-9.2-19.21-18.25-38.49-27.36-57.74-.78-1.64-1.72-3.2-2.59-4.79-.61-1.5-1.22-3-1.84-4.49-.95,2.02-.94,3.65-.95,5.28l-.21,65.67v-.02Z"/>
      <path class="cls-4" d="M119.22,148.41l.21-65.67c0-1.63,0-3.26.95-5.28.61,1.5,1.22,3,1.84,4.49-.41,2.59-1.15,5.19-1.17,7.78-.1,17.61,0,35.22-.13,52.82-.01,1.95-1.1,3.9-1.7,5.85h0Z"/>
    </g>
  </g>
</svg>